;TYPE=PLATED
;Layer: PTH_Through_Via
;EasyEDA Pro Client v3.2.149.88089769, 2026-06-22 08:14:21
;Gerber Generator version 0.3
M48
METRIC,LZ,0000.00000
;Hole size 1 = 0.30500 METRIC
T01C0.30500
%
G05
G90
T01
X0.0Y-32.97199
X2.905Y-24.511
X0.0Y-30.3563
X3.429Y-17.415
X-3.937Y-14.462
X-5.445Y-3.556
X-3.556Y-6.858
X2.77241Y-8.128
X-2.77241Y-8.128
X0.0Y0.508
X2.38659Y-4.57252
X-0.0125Y1.676
X-2.77241Y3.175
X-2.77241Y4.445
X6.32412Y6.731
X4.77495Y10.033
X-2.01003Y6.858
X-4.77495Y10.033
X1.524Y6.096
X3.07393Y7.731
X2.77241Y1.016
X4.318Y6.223
X1.27Y21.209
X-2.54Y21.18416
X1.27Y22.86
X-4.77495Y11.303
X4.77495Y23.368
X-1.397Y25.273
X2.921Y31.369
X1.70696Y28.96395
X-2.921Y33.528
X4.77495Y11.303
X-0.635Y18.669
X2.81064Y19.41436
X4.953Y21.336
X1.524Y12.446
X2.794Y13.716
X6.22208Y14.49039
X2.54Y21.18416
X-4.77495Y18.923
X-5.715Y12.573
X6.94246Y17.32355
X6.71134Y19.50771
X-4.77495Y23.368
X-2.794Y24.003
X-1.54327Y29.07658
X-3.175Y8.001
X-5.969Y8.001
X2.77241Y-5.588
X-1.524Y33.02
X-4.77495Y27.178
X-4.826Y28.448
X-4.77495Y29.718
X-4.77495Y30.988
X4.77495Y27.178
X4.77495Y28.448
X4.77495Y29.718
X4.77495Y30.988
X-7.239Y26.797
X-7.239Y28.829
X6.17098Y15.63339
X4.77495Y13.843
X6.731Y26.162
X7.112Y29.718
X0.889Y7.62
X1.397Y17.526
X2.794Y17.653
X-0.99657Y5.73443
X5.445Y-3.556
X-3.175Y19.558
X1.524Y3.81
X2.77241Y-9.398
X-1.79491Y-13.31809
X3.429Y-19.415
X-1.663Y-17.78
X2.921Y-26.543
X-1.6449Y-25.33404
X-6.21495Y5.79655
X-4.953Y-7.747
X-2.667Y-15.621
X-3.048Y-25.654
X-1.651Y-20.955
X-1.397Y0.381
X1.016Y25.527
X0.889Y32.258
X2.286Y27.051
X5.334Y36.068
X0.0Y10.36639
X1.651Y-0.127
X-1.143Y3.81
X0.889Y13.65894
X3.302Y22.606
X6.731Y32.766
X2.10703Y-3.27699
X5.969Y38.227
M30