G04 Layer: TopSolderMaskLayer*
G04 EasyEDA Pro v3.2.149.88089769, 2026-06-22 08:14:20*
G04 Gerber Generator version 0.3*
G04 Scale: 100 percent, Rotated: No, Reflected: No*
G04 Dimensions in millimeters*
G04 Leading zeros omitted, absolute positions, 4 integers and 5 decimals*
G04 Generated by one-click*
G04 Object Configs: Pad,Via,Track,Text,Image,Dimension,BoardOutline,BoardCutout,CopperFilled,SolidRegion,FPCStiffener,Line,PlaneZone,ComponentProperty,ComponentSilkscreen,TearDrop*
G04 Layer Configs: 1,2,3,4,5,6,7,8,9,10,11,13,14,56*
G04 Copper Areas: 0*
%FSLAX45Y45*%
%MOMM*%
%AMRoundRect*1,1,$1,$2,$3*1,1,$1,$4,$5*1,1,$1,0-$2,0-$3*1,1,$1,0-$4,0-$5*20,1,$1,$2,$3,$4,$5,0*20,1,$1,$4,$5,0-$2,0-$3,0*20,1,$1,0-$2,0-$3,0-$4,0-$5,0*20,1,$1,0-$4,0-$5,$2,$3,0*4,1,4,$2,$3,$4,$5,0-$2,0-$3,0-$4,0-$5,$2,$3,0*%
%ADD10C,3.3516*%
%ADD11O,2.6016X1.6256*%
%ADD12O,1.6256X2.6016*%
%ADD13O,2.55161X0.68961*%
%ADD14RoundRect,0.1016X-0.536X-0.266X-0.536X0.266*%
%ADD15O,0.67559X2.13959*%
%ADD16O,2.1586X0.68961*%
%ADD17O,2.1466X0.68961*%
%ADD18RoundRect,0.1016X-1.75X-1.175X-1.75X1.175*%
%ADD19C,1.70002*%
%ADD20RoundRect,0.10003X-0.8X0.8X0.8X0.8*%
%ADD21O,1.7016X1.70155*%
%ADD22O,3.10159X2.1016*%
%ADD23RoundRect,0.1016X-0.675X-0.705X-0.675X0.705*%
%ADD24RoundRect,0.1016X-0.705X0.67501X0.705X0.67501*%
%ADD25RoundRect,0.1016X-0.69977X-0.65024X-0.69977X0.65024*%
%ADD26RoundRect,0.1016X-0.56627X0.68851X0.56627X0.68851*%
%ADD27RoundRect,0.1016X-0.68851X-0.56627X-0.68851X0.56627*%
G75*


G04 Pad Start*
G54D10*
G01X-749300Y4000500D03*
G01X749300Y4000500D03*
G01X-495300Y0D03*
G01X495300Y0D03*
G01X0Y-4000500D03*
G54D11*
G01X-749300Y3721100D03*
G54D12*
G01X-787400Y3454400D03*
G54D11*
G01X749300Y3721100D03*
G54D12*
G01X787400Y3454400D03*
G54D11*
G01X-660400Y1955800D03*
G01X660400Y1955800D03*
G01X-647700Y1739900D03*
G01X635000Y1739900D03*
G54D13*
G01X477495Y2336800D03*
G01X477495Y2463800D03*
G01X477495Y2590800D03*
G01X477495Y2717800D03*
G01X477495Y2844800D03*
G01X477495Y2971800D03*
G01X477495Y3098800D03*
G01X477495Y3225800D03*
G01X477495Y3352800D03*
G01X477495Y3479800D03*
G01X-477495Y2336800D03*
G01X-477495Y2463800D03*
G01X-477495Y2590800D03*
G01X-477495Y2717800D03*
G01X-477495Y2844800D03*
G01X-477495Y2971800D03*
G01X-477495Y3098800D03*
G01X-477495Y3225800D03*
G01X-477495Y3352800D03*
G01X-477495Y3479800D03*
G54D14*
G01X-75590Y-2457196D03*
G01X-75590Y-2362200D03*
G01X-75590Y-2267204D03*
G01X-305410Y-2267204D03*
G01X-305410Y-2362200D03*
G01X-305410Y-2457196D03*
G54D15*
G01X381000Y2118416D03*
G01X254000Y2118416D03*
G01X127000Y2118416D03*
G01X0Y2118416D03*
G01X-127000Y2118416D03*
G01X-254000Y2118416D03*
G01X-381000Y2118416D03*
G01X381000Y1564594D03*
G01X254000Y1564594D03*
G01X127000Y1564594D03*
G01X0Y1564594D03*
G01X-127000Y1564594D03*
G01X-254000Y1564594D03*
G01X-381000Y1564594D03*
G54D17*
G01X277241Y863600D03*
G01X277241Y990600D03*
G01X277241Y1117600D03*
G01X277241Y1244600D03*
G01X-277241Y863600D03*
G01X-277241Y990600D03*
G01X-277241Y1117600D03*
G01X-277241Y1244600D03*
G54D18*
G01X0Y-2697201D03*
G01X0Y-3297199D03*
G54D17*
G01X277241Y190500D03*
G01X277241Y317500D03*
G01X277241Y444500D03*
G01X277241Y571500D03*
G01X-277241Y190500D03*
G01X-277241Y317500D03*
G01X-277241Y444500D03*
G01X-277241Y571500D03*
G01X277241Y-939800D03*
G01X277241Y-812800D03*
G01X277241Y-685800D03*
G01X277241Y-558800D03*
G01X-277241Y-939800D03*
G01X-277241Y-812800D03*
G01X-277241Y-685800D03*
G01X-277241Y-558800D03*
G54D19*
G01X-124993Y-3556000D03*
G54D20*
G01X124993Y-3556000D03*
G54D21*
G01X0Y-1787500D03*
G01X0Y-1387500D03*
G01X0Y-1587500D03*
G54D22*
G01X0Y-1172500D03*
G01X0Y-2002500D03*
G54D23*
G01X-342900Y-1741500D03*
G01X-342900Y-1941500D03*
G01X342900Y-1941500D03*
G01X342900Y-1741500D03*
G01X-598500Y787400D03*
G01X-598500Y587400D03*
G54D24*
G01X344500Y-355600D03*
G01X544500Y-355600D03*
G54D25*
G01X381000Y-1241171D03*
G01X381000Y-1451229D03*
G54D26*
G01X290500Y-2451100D03*
G01X90500Y-2451100D03*
G01X90500Y-2235200D03*
G01X290500Y-2235200D03*
G54D27*
G01X622300Y865200D03*
G01X622300Y1065200D03*
G54D26*
G01X87300Y-355600D03*
G01X-112700Y-355600D03*
G54D27*
G01X-393700Y-1246200D03*
G01X-393700Y-1446200D03*
G54D26*
G01X-544500Y-355600D03*
G01X-344500Y-355600D03*
G04 Pad End*

M02*

