G04 Layer: BottomSilkscreenLayer*
G04 EasyEDA Pro v3.2.149.88089769, 2026-06-22 08:14:20*
G04 Gerber Generator version 0.3*
G04 Scale: 100 percent, Rotated: No, Reflected: No*
G04 Dimensions in millimeters*
G04 Leading zeros omitted, absolute positions, 4 integers and 5 decimals*
G04 Generated by one-click*
G04 Object Configs: Pad,Via,Track,Text,Image,Dimension,BoardOutline,BoardCutout,CopperFilled,SolidRegion,FPCStiffener,Line,PlaneZone,ComponentProperty,ComponentSilkscreen,TearDrop*
G04 Layer Configs: 1,2,3,4,5,6,7,8,9,10,11,13,14,56*
G04 Copper Areas: 0*
%FSLAX45Y45*%
%MOMM*%
%ADD10C,0.1524*%
%ADD11C,0.15199*%
%ADD12C,0.254*%
%ADD13C,0.3*%
%ADD14C,0.1625*%
G75*


G04 Image Start*
G36*
G01X-635881Y2675409D02*
G01X-663711Y2675409D01*
G01X-663783Y2676027D01*
G01X-663854Y2676645D01*
G01X-664473Y2676716D01*
G01X-665091Y2676787D01*
G01X-665162Y2677405D01*
G01X-665234Y2678023D01*
G01X-666471Y2678166D01*
G01X-666543Y2678784D01*
G01X-666614Y2679402D01*
G01X-667232Y2679473D01*
G01X-667851Y2679544D01*
G01X-667923Y2680162D01*
G01X-667994Y2680780D01*
G01X-668612Y2680852D01*
G01X-669231Y2680923D01*
G01X-669303Y2681541D01*
G01X-669374Y2682159D01*
G01X-669993Y2682230D01*
G01X-670611Y2682301D01*
G01X-670684Y2682933D01*
G01X-670757Y2683565D01*
G01X-672106Y2683565D01*
G01X-672106Y2684913D01*
G01X-672738Y2684986D01*
G01X-673371Y2685058D01*
G01X-673440Y2686379D01*
G01X-673509Y2687700D01*
G01X-674866Y2687700D01*
G01X-674866Y2689049D01*
G01X-676131Y2689194D01*
G01X-676194Y2693257D01*
G01X-676257Y2697321D01*
G01X-676884Y2697393D01*
G01X-677511Y2697465D01*
G01X-677649Y2700107D01*
G01X-679006Y2700107D01*
G01X-679006Y2701463D01*
G01X-681651Y2701600D01*
G01X-681720Y2702921D01*
G01X-681789Y2704242D01*
G01X-683146Y2704242D01*
G01X-683146Y2705590D01*
G01X-663366Y2705590D01*
G01X-663366Y2699219D01*
G01X-662734Y2699146D01*
G01X-662101Y2699073D01*
G01X-662032Y2697752D01*
G01X-661963Y2696431D01*
G01X-660606Y2696431D01*
G01X-660606Y2695083D01*
G01X-659341Y2694938D01*
G01X-659270Y2694320D01*
G01X-659198Y2693702D01*
G01X-658580Y2693631D01*
G01X-657961Y2693559D01*
G01X-657818Y2692323D01*
G01X-657200Y2692252D01*
G01X-656581Y2692181D01*
G01X-656509Y2691560D01*
G01X-656438Y2690939D01*
G01X-655130Y2690871D01*
G01X-653821Y2690802D01*
G01X-653748Y2690170D01*
G01X-653676Y2689538D01*
G01X-653676Y2689538D01*
G01X-645886Y2689538D01*
G01X-645886Y2690917D01*
G01X-643126Y2690917D01*
G01X-643126Y2692295D01*
G01X-641746Y2692295D01*
G01X-641746Y2693674D01*
G01X-640397Y2693674D01*
G01X-640324Y2694306D01*
G01X-640251Y2694938D01*
G01X-638986Y2695083D01*
G01X-638986Y2696431D01*
G01X-637606Y2696431D01*
G01X-637606Y2697809D01*
G01X-636226Y2697809D01*
G01X-636226Y2706969D01*
G01X-636859Y2707042D01*
G01X-637491Y2707114D01*
G01X-637563Y2707732D01*
G01X-637634Y2708350D01*
G01X-638253Y2708422D01*
G01X-638871Y2708493D01*
G01X-638943Y2709111D01*
G01X-639014Y2709729D01*
G01X-639633Y2709800D01*
G01X-640251Y2709871D01*
G01X-640323Y2710489D01*
G01X-640394Y2711107D01*
G01X-641013Y2711178D01*
G01X-641631Y2711250D01*
G01X-641774Y2712486D01*
G01X-642393Y2712557D01*
G01X-643011Y2712628D01*
G01X-643157Y2713892D01*
G01X-656436Y2713892D01*
G01X-656581Y2712628D01*
G01X-657200Y2712557D01*
G01X-657818Y2712486D01*
G01X-657961Y2711250D01*
G01X-659204Y2711107D01*
G01X-659341Y2708493D01*
G01X-659960Y2708422D01*
G01X-660578Y2708350D01*
G01X-660650Y2707732D01*
G01X-660721Y2707114D01*
G01X-661340Y2707043D01*
G01X-661958Y2706972D01*
G01X-662030Y2706354D01*
G01X-662101Y2705736D01*
G01X-662734Y2705663D01*
G01X-663366Y2705590D01*
G01X-683146Y2705590D01*
G01X-683146Y2705598D01*
G01X-684469Y2705667D01*
G01X-685791Y2705736D01*
G01X-685860Y2707057D01*
G01X-685929Y2708378D01*
G01X-687286Y2708378D01*
G01X-687286Y2709733D01*
G01X-688608Y2709802D01*
G01X-689931Y2709871D01*
G01X-690069Y2712514D01*
G01X-691426Y2712514D01*
G01X-691426Y2713869D01*
G01X-694071Y2714007D01*
G01X-694140Y2715328D01*
G01X-694209Y2716649D01*
G01X-695566Y2716649D01*
G01X-695566Y2718005D01*
G01X-696889Y2718074D01*
G01X-698211Y2718142D01*
G01X-698349Y2720785D01*
G01X-699706Y2720785D01*
G01X-699706Y2722140D01*
G01X-701028Y2722209D01*
G01X-702351Y2722278D01*
G01X-702489Y2724920D01*
G01X-703846Y2724920D01*
G01X-703846Y2726276D01*
G01X-706491Y2726413D01*
G01X-706560Y2727735D01*
G01X-706629Y2729055D01*
G01X-707986Y2729055D01*
G01X-707986Y2730411D01*
G01X-709308Y2730480D01*
G01X-710631Y2730549D01*
G01X-710769Y2733191D01*
G01X-712126Y2733191D01*
G01X-712126Y2734570D01*
G01X-724055Y2734570D01*
G01X-724128Y2733938D01*
G01X-724201Y2733306D01*
G01X-736548Y2733246D01*
G01X-748896Y2733187D01*
G01X-749041Y2731927D01*
G01X-749659Y2731856D01*
G01X-750278Y2731785D01*
G01X-750349Y2731167D01*
G01X-750421Y2730549D01*
G01X-751729Y2730480D01*
G01X-753037Y2730412D01*
G01X-753109Y2729791D01*
G01X-753181Y2729170D01*
G01X-753799Y2729099D01*
G01X-754418Y2729028D01*
G01X-754489Y2728410D01*
G01X-754561Y2727792D01*
G01X-755179Y2727721D01*
G01X-755798Y2727649D01*
G01X-755869Y2727031D01*
G01X-755941Y2726413D01*
G01X-756569Y2726341D01*
G01X-757197Y2726269D01*
G01X-757259Y2721516D01*
G01X-757321Y2716764D01*
G01X-769970Y2716764D01*
G01X-769997Y2740053D01*
G01X-692346Y2740053D01*
G01X-692346Y2735059D01*
G01X-691714Y2734987D01*
G01X-691081Y2734914D01*
G01X-691009Y2734296D01*
G01X-690938Y2733678D01*
G01X-690320Y2733607D01*
G01X-689701Y2733536D01*
G01X-689630Y2732918D01*
G01X-689558Y2732300D01*
G01X-688940Y2732229D01*
G01X-688321Y2732157D01*
G01X-688250Y2731539D01*
G01X-688178Y2730921D01*
G01X-687559Y2730850D01*
G01X-686941Y2730779D01*
G01X-686870Y2730161D01*
G01X-686798Y2729543D01*
G01X-686180Y2729471D01*
G01X-685561Y2729400D01*
G01X-685490Y2728782D01*
G01X-685418Y2728164D01*
G01X-684800Y2728093D01*
G01X-684181Y2728022D01*
G01X-684110Y2727404D01*
G01X-684038Y2726786D01*
G01X-683420Y2726715D01*
G01X-682801Y2726643D01*
G01X-682730Y2726025D01*
G01X-682658Y2725407D01*
G01X-682040Y2725336D01*
G01X-681421Y2725265D01*
G01X-681350Y2724647D01*
G01X-681278Y2724029D01*
G01X-680660Y2723957D01*
G01X-680041Y2723886D01*
G01X-679970Y2723268D01*
G01X-679898Y2722650D01*
G01X-679280Y2722579D01*
G01X-678661Y2722508D01*
G01X-678589Y2721890D01*
G01X-678518Y2721272D01*
G01X-677900Y2721201D01*
G01X-677281Y2721129D01*
G01X-677138Y2719888D01*
G01X-675829Y2719819D01*
G01X-674521Y2719751D01*
G01X-674448Y2719119D01*
G01X-674376Y2718487D01*
G01X-674376Y2718487D01*
G01X-673486Y2718487D01*
G01X-673486Y2719866D01*
G01X-670726Y2719866D01*
G01X-670726Y2721244D01*
G01X-669369Y2721244D01*
G01X-669300Y2722565D01*
G01X-669231Y2723886D01*
G01X-666586Y2724024D01*
G01X-666586Y2725379D01*
G01X-665206Y2725379D01*
G01X-665206Y2728137D01*
G01X-663826Y2728137D01*
G01X-663826Y2729025D01*
G01X-665091Y2729170D01*
G01X-665228Y2731784D01*
G01X-665850Y2731856D01*
G01X-666471Y2731927D01*
G01X-666543Y2732545D01*
G01X-666614Y2733163D01*
G01X-667232Y2733235D01*
G01X-667851Y2733306D01*
G01X-667923Y2733924D01*
G01X-667994Y2734539D01*
G01X-638526Y2734539D01*
G01X-638526Y2729515D01*
G01X-637146Y2729515D01*
G01X-637146Y2728160D01*
G01X-635824Y2728091D01*
G01X-634501Y2728022D01*
G01X-634501Y2728022D01*
G01X-634429Y2727390D01*
G01X-634356Y2726758D01*
G01X-633466Y2726758D01*
G01X-633466Y2728137D01*
G01X-632086Y2728137D01*
G01X-632086Y2729515D01*
G01X-630716Y2729515D01*
G01X-630591Y2739050D01*
G01X-629326Y2739195D01*
G01X-629326Y2740543D01*
G01X-627946Y2740543D01*
G01X-627946Y2751571D01*
G01X-626597Y2751571D01*
G01X-626524Y2752203D01*
G01X-626451Y2752835D01*
G01X-625186Y2752980D01*
G01X-625186Y2754328D01*
G01X-623837Y2754328D01*
G01X-623691Y2755592D01*
G01X-623059Y2755664D01*
G01X-622426Y2755737D01*
G01X-622426Y2757085D01*
G01X-621046Y2757085D01*
G01X-621046Y2770870D01*
G01X-619666Y2770870D01*
G01X-619666Y2781439D01*
G01X-621936Y2781439D01*
G01X-622009Y2780807D01*
G01X-622081Y2780175D01*
G01X-624698Y2780038D01*
G01X-624770Y2779417D01*
G01X-624841Y2778797D01*
G01X-626097Y2778652D01*
G01X-626159Y2773899D01*
G01X-626221Y2769147D01*
G01X-627459Y2769004D01*
G01X-627530Y2768386D01*
G01X-627601Y2767768D01*
G01X-628228Y2767696D01*
G01X-628854Y2767624D01*
G01X-628918Y2764250D01*
G01X-628981Y2760876D01*
G01X-629600Y2760805D01*
G01X-630218Y2760733D01*
G01X-630290Y2760115D01*
G01X-630361Y2759497D01*
G01X-630980Y2759426D01*
G01X-631598Y2759355D01*
G01X-631670Y2758737D01*
G01X-631741Y2758119D01*
G01X-632369Y2758047D01*
G01X-632996Y2757975D01*
G01X-633058Y2753911D01*
G01X-633121Y2749848D01*
G01X-633750Y2749776D01*
G01X-634379Y2749703D01*
G01X-634440Y2743572D01*
G01X-634501Y2737441D01*
G01X-635120Y2737370D01*
G01X-635738Y2737299D01*
G01X-635810Y2736681D01*
G01X-635881Y2736063D01*
G01X-636500Y2735992D01*
G01X-637118Y2735920D01*
G01X-637190Y2735302D01*
G01X-637261Y2734684D01*
G01X-638526Y2734539D01*
G01X-667994Y2734539D01*
G01X-667994Y2734542D01*
G01X-668612Y2734613D01*
G01X-669231Y2734684D01*
G01X-669368Y2737298D01*
G01X-669990Y2737370D01*
G01X-670611Y2737441D01*
G01X-670754Y2738677D01*
G01X-671373Y2738749D01*
G01X-671991Y2738820D01*
G01X-672062Y2739438D01*
G01X-672134Y2740056D01*
G01X-673371Y2740198D01*
G01X-673437Y2742194D01*
G01X-673503Y2744190D01*
G01X-674127Y2744262D01*
G01X-674751Y2744334D01*
G01X-674823Y2744952D01*
G01X-674894Y2745570D01*
G01X-675512Y2745641D01*
G01X-676131Y2745712D01*
G01X-676202Y2746330D01*
G01X-676274Y2746948D01*
G01X-676893Y2747020D01*
G01X-677511Y2747091D01*
G01X-677578Y2749101D01*
G01X-677644Y2751112D01*
G01X-679895Y2751112D01*
G01X-679968Y2750480D01*
G01X-680041Y2749848D01*
G01X-680660Y2749777D01*
G01X-681278Y2749705D01*
G01X-681350Y2749087D01*
G01X-681421Y2748469D01*
G01X-682040Y2748398D01*
G01X-682658Y2748327D01*
G01X-682730Y2747709D01*
G01X-682801Y2747091D01*
G01X-683420Y2747020D01*
G01X-684038Y2746948D01*
G01X-684110Y2746330D01*
G01X-684181Y2745712D01*
G01X-684800Y2745641D01*
G01X-685418Y2745570D01*
G01X-685490Y2744952D01*
G01X-685561Y2744334D01*
G01X-686180Y2744262D01*
G01X-686798Y2744191D01*
G01X-686870Y2743573D01*
G01X-686941Y2742955D01*
G01X-689558Y2742818D01*
G01X-689629Y2742198D01*
G01X-689701Y2741577D01*
G01X-690320Y2741506D01*
G01X-690938Y2741434D01*
G01X-691009Y2740816D01*
G01X-691081Y2740198D01*
G01X-691714Y2740126D01*
G01X-692346Y2740053D01*
G01X-769997Y2740053D01*
G01X-770002Y2744678D01*
G01X-754446Y2744678D01*
G01X-745246Y2744678D01*
G01X-745246Y2746057D01*
G01X-741106Y2746057D01*
G01X-741106Y2747436D01*
G01X-739726Y2747436D01*
G01X-739726Y2752459D01*
G01X-740358Y2752532D01*
G01X-740991Y2752605D01*
G01X-741062Y2753223D01*
G01X-741134Y2753841D01*
G01X-741752Y2753912D01*
G01X-742371Y2753983D01*
G01X-742442Y2754601D01*
G01X-742514Y2755219D01*
G01X-743132Y2755291D01*
G01X-743751Y2755362D01*
G01X-743810Y2769319D01*
G01X-743832Y2774516D01*
G01X-729606Y2774516D01*
G01X-729606Y2762599D01*
G01X-728226Y2762599D01*
G01X-728226Y2761244D01*
G01X-726903Y2761175D01*
G01X-725581Y2761106D01*
G01X-725443Y2758463D01*
G01X-724086Y2758463D01*
G01X-724086Y2757108D01*
G01X-721441Y2756970D01*
G01X-721372Y2755649D01*
G01X-721303Y2754328D01*
G01X-719946Y2754328D01*
G01X-719946Y2752972D01*
G01X-718623Y2752904D01*
G01X-717301Y2752835D01*
G01X-717163Y2750193D01*
G01X-717163Y2750193D01*
G01X-715806Y2750193D01*
G01X-715806Y2748814D01*
G01X-703846Y2748814D01*
G01X-703846Y2750193D01*
G01X-702489Y2750193D01*
G01X-702351Y2752835D01*
G01X-701028Y2752904D01*
G01X-699706Y2752972D01*
G01X-699706Y2754328D01*
G01X-698349Y2754328D01*
G01X-698280Y2755649D01*
G01X-698211Y2756970D01*
G01X-696889Y2757039D01*
G01X-695566Y2757108D01*
G01X-695566Y2758463D01*
G01X-694209Y2758463D01*
G01X-694140Y2759785D01*
G01X-694071Y2761106D01*
G01X-691426Y2761244D01*
G01X-691426Y2762599D01*
G01X-690046Y2762599D01*
G01X-690046Y2774516D01*
G01X-691311Y2774661D01*
G01X-691382Y2775279D01*
G01X-691454Y2775897D01*
G01X-692691Y2776039D01*
G01X-692834Y2777275D01*
G01X-693452Y2777347D01*
G01X-694071Y2777418D01*
G01X-694142Y2778036D01*
G01X-694214Y2778654D01*
G01X-694832Y2778725D01*
G01X-695451Y2778797D01*
G01X-695522Y2779414D01*
G01X-695594Y2780032D01*
G01X-696212Y2780104D01*
G01X-696831Y2780175D01*
G01X-696902Y2780793D01*
G01X-696974Y2781411D01*
G01X-697592Y2781482D01*
G01X-698211Y2781553D01*
G01X-698282Y2782171D01*
G01X-698354Y2782789D01*
G01X-698972Y2782861D01*
G01X-699591Y2782932D01*
G01X-699734Y2784168D01*
G01X-700352Y2784239D01*
G01X-700971Y2784311D01*
G01X-701042Y2784928D01*
G01X-701114Y2785546D01*
G01X-701732Y2785618D01*
G01X-702351Y2785689D01*
G01X-702422Y2786307D01*
G01X-702494Y2786925D01*
G01X-703112Y2786996D01*
G01X-703731Y2787067D01*
G01X-703804Y2787699D01*
G01X-703877Y2788331D01*
G01X-715775Y2788331D01*
G01X-715921Y2787067D01*
G01X-716542Y2786996D01*
G01X-717164Y2786924D01*
G01X-717232Y2785617D01*
G01X-717301Y2784311D01*
G01X-718609Y2784242D01*
G01X-719917Y2784174D01*
G01X-719989Y2783553D01*
G01X-720061Y2782932D01*
G01X-720679Y2782861D01*
G01X-721298Y2782789D01*
G01X-721369Y2782171D01*
G01X-721441Y2781553D01*
G01X-722059Y2781482D01*
G01X-722678Y2781411D01*
G01X-722749Y2780793D01*
G01X-722821Y2780175D01*
G01X-723439Y2780104D01*
G01X-724058Y2780032D01*
G01X-724129Y2779414D01*
G01X-724201Y2778797D01*
G01X-724822Y2778725D01*
G01X-725444Y2778653D01*
G01X-725581Y2776039D01*
G01X-726889Y2775971D01*
G01X-728197Y2775903D01*
G01X-728341Y2774661D01*
G01X-729606Y2774516D01*
G01X-743832Y2774516D01*
G01X-743869Y2783277D01*
G01X-742509Y2783277D01*
G01X-742371Y2785919D01*
G01X-741752Y2785990D01*
G01X-741134Y2786061D01*
G01X-741062Y2786679D01*
G01X-740991Y2787297D01*
G01X-740372Y2787369D01*
G01X-739754Y2787440D01*
G01X-739682Y2788058D01*
G01X-739611Y2788676D01*
G01X-738992Y2788747D01*
G01X-738374Y2788818D01*
G01X-738302Y2789436D01*
G01X-738231Y2790054D01*
G01X-737598Y2790127D01*
G01X-736966Y2790200D01*
G01X-736966Y2791548D01*
G01X-735586Y2791548D01*
G01X-735586Y2792467D01*
G01X-754446Y2792467D01*
G01X-754446Y2744678D01*
G01X-754446Y2744678D01*
G01X-770002Y2744678D01*
G01X-770087Y2820496D01*
G01X-768729Y2820496D01*
G01X-768591Y2823138D01*
G01X-763588Y2823200D01*
G01X-758586Y2823262D01*
G01X-758586Y2820527D01*
G01X-757321Y2820381D01*
G01X-757195Y2812225D01*
G01X-755826Y2812225D01*
G01X-755826Y2810877D01*
G01X-755193Y2810805D01*
G01X-754561Y2810732D01*
G01X-754488Y2810100D01*
G01X-754415Y2809468D01*
G01X-753066Y2809468D01*
G01X-753066Y2808108D01*
G01X-751053Y2808041D01*
G01X-749041Y2807975D01*
G01X-748896Y2806715D01*
G01X-734478Y2806655D01*
G01X-720061Y2806596D01*
G01X-719989Y2805978D01*
G01X-719918Y2805361D01*
G01X-719299Y2805289D01*
G01X-718681Y2805218D01*
G01X-718609Y2804600D01*
G01X-718538Y2803982D01*
G01X-717919Y2803911D01*
G01X-717301Y2803839D01*
G01X-717228Y2803210D01*
G01X-717156Y2802580D01*
G01X-706878Y2802521D01*
G01X-696601Y2802461D01*
G01X-696529Y2801843D01*
G01X-696458Y2801225D01*
G01X-695840Y2801154D01*
G01X-695221Y2801082D01*
G01X-695149Y2800459D01*
G01X-695077Y2799836D01*
G01X-693079Y2799770D01*
G01X-691081Y2799704D01*
G01X-691009Y2799083D01*
G01X-690938Y2798462D01*
G01X-688321Y2798325D01*
G01X-688183Y2795683D01*
G01X-686826Y2795683D01*
G01X-686826Y2794328D01*
G01X-684181Y2794190D01*
G01X-684112Y2792869D01*
G01X-684043Y2791548D01*
G01X-682686Y2791548D01*
G01X-682686Y2790192D01*
G01X-681364Y2790123D01*
G01X-680041Y2790054D01*
G01X-679978Y2786680D01*
G01X-679914Y2783306D01*
G01X-679287Y2783234D01*
G01X-678661Y2783162D01*
G01X-678589Y2782544D01*
G01X-678518Y2781926D01*
G01X-677900Y2781855D01*
G01X-677281Y2781783D01*
G01X-677210Y2781165D01*
G01X-677138Y2780547D01*
G01X-676520Y2780476D01*
G01X-675901Y2780405D01*
G01X-675839Y2775637D01*
G01X-675777Y2770870D01*
G01X-674406Y2770870D01*
G01X-674406Y2769515D01*
G01X-671761Y2769377D01*
G01X-671693Y2768070D01*
G01X-671624Y2766763D01*
G01X-670381Y2766620D01*
G01X-670315Y2764609D01*
G01X-670248Y2762599D01*
G01X-668886Y2762599D01*
G01X-668886Y2761251D01*
G01X-667621Y2761106D01*
G01X-667550Y2760488D01*
G01X-667478Y2759870D01*
G01X-666860Y2759799D01*
G01X-666241Y2759727D01*
G01X-666170Y2759109D01*
G01X-666098Y2758491D01*
G01X-664861Y2758349D01*
G01X-664718Y2757113D01*
G01X-664100Y2757041D01*
G01X-663481Y2756970D01*
G01X-663412Y2755663D01*
G01X-663344Y2754357D01*
G01X-662723Y2754285D01*
G01X-662101Y2754213D01*
G01X-662030Y2753595D01*
G01X-661958Y2752977D01*
G01X-661340Y2752906D01*
G01X-660721Y2752835D01*
G01X-660650Y2752217D01*
G01X-660578Y2751599D01*
G01X-659960Y2751528D01*
G01X-659341Y2751456D01*
G01X-659270Y2750838D01*
G01X-659198Y2750220D01*
G01X-658580Y2750149D01*
G01X-657961Y2750078D01*
G01X-657890Y2749460D01*
G01X-657818Y2748842D01*
G01X-657200Y2748771D01*
G01X-656581Y2748699D01*
G01X-656510Y2748081D01*
G01X-656438Y2747463D01*
G01X-655820Y2747392D01*
G01X-655201Y2747321D01*
G01X-655135Y2745325D01*
G01X-655069Y2743329D01*
G01X-654445Y2743257D01*
G01X-653821Y2743185D01*
G01X-653750Y2742567D01*
G01X-653678Y2741949D01*
G01X-653060Y2741878D01*
G01X-652441Y2741807D01*
G01X-652368Y2741175D01*
G01X-652296Y2740543D01*
G01X-650026Y2740543D01*
G01X-650026Y2750193D01*
G01X-648646Y2750193D01*
G01X-648646Y2752950D01*
G01X-647277Y2752950D01*
G01X-647214Y2757028D01*
G01X-647151Y2761106D01*
G01X-646519Y2761178D01*
G01X-645886Y2761251D01*
G01X-645886Y2762599D01*
G01X-644506Y2762599D01*
G01X-644506Y2765356D01*
G01X-643137Y2765356D01*
G01X-643074Y2769434D01*
G01X-643011Y2773512D01*
G01X-641746Y2773658D01*
G01X-641746Y2775006D01*
G01X-640376Y2775006D01*
G01X-640251Y2784540D01*
G01X-639633Y2784612D01*
G01X-639014Y2784683D01*
G01X-638943Y2785301D01*
G01X-638871Y2785919D01*
G01X-637606Y2786064D01*
G01X-637606Y2787412D01*
G01X-636226Y2787412D01*
G01X-636226Y2793815D01*
G01X-637491Y2793960D01*
G01X-637563Y2794578D01*
G01X-637634Y2795196D01*
G01X-638253Y2795267D01*
G01X-638871Y2795338D01*
G01X-638943Y2795956D01*
G01X-639014Y2796574D01*
G01X-639633Y2796646D01*
G01X-640251Y2796717D01*
G01X-640320Y2798024D01*
G01X-640388Y2799331D01*
G01X-641010Y2799402D01*
G01X-641631Y2799474D01*
G01X-641703Y2800092D01*
G01X-641774Y2800710D01*
G01X-642393Y2800781D01*
G01X-643011Y2800852D01*
G01X-643083Y2801470D01*
G01X-643154Y2802088D01*
G01X-643773Y2802160D01*
G01X-644391Y2802231D01*
G01X-644534Y2803467D01*
G01X-645153Y2803538D01*
G01X-645771Y2803610D01*
G01X-645843Y2804230D01*
G01X-645915Y2804851D01*
G01X-648531Y2804988D01*
G01X-648668Y2807602D01*
G01X-649290Y2807673D01*
G01X-649911Y2807745D01*
G01X-649978Y2809755D01*
G01X-650044Y2811766D01*
G01X-651406Y2811766D01*
G01X-651406Y2813114D01*
G01X-652671Y2813259D01*
G01X-652743Y2813877D01*
G01X-652814Y2814495D01*
G01X-653433Y2814566D01*
G01X-654051Y2814637D01*
G01X-654123Y2815255D01*
G01X-654194Y2815873D01*
G01X-654813Y2815945D01*
G01X-655431Y2816016D01*
G01X-655503Y2816634D01*
G01X-655574Y2817252D01*
G01X-656192Y2817323D01*
G01X-656811Y2817395D01*
G01X-656811Y2827274D01*
G01X-656179Y2827346D01*
G01X-655546Y2827419D01*
G01X-655546Y2828767D01*
G01X-654166Y2828767D01*
G01X-654166Y2830146D01*
G01X-652786Y2830146D01*
G01X-652786Y2835660D01*
G01X-651424Y2835660D01*
G01X-651358Y2837670D01*
G01X-651291Y2839680D01*
G01X-650026Y2839826D01*
G01X-650026Y2841174D01*
G01X-648677Y2841174D01*
G01X-648531Y2842437D01*
G01X-647899Y2842510D01*
G01X-647266Y2842583D01*
G01X-647266Y2843931D01*
G01X-645886Y2843931D01*
G01X-645886Y2846688D01*
G01X-644537Y2846688D01*
G01X-644464Y2847320D01*
G01X-644391Y2847951D01*
G01X-643759Y2848024D01*
G01X-643126Y2848097D01*
G01X-643126Y2849445D01*
G01X-641746Y2849445D01*
G01X-641746Y2854959D01*
G01X-640397Y2854959D01*
G01X-640324Y2855590D01*
G01X-640251Y2856222D01*
G01X-635249Y2856284D01*
G01X-630246Y2856346D01*
G01X-630246Y2853611D01*
G01X-629614Y2853538D01*
G01X-628981Y2853465D01*
G01X-628981Y2844965D01*
G01X-629603Y2844893D01*
G01X-630224Y2844821D01*
G01X-630293Y2843515D01*
G01X-630361Y2842208D01*
G01X-630985Y2842136D01*
G01X-631609Y2842064D01*
G01X-631675Y2840068D01*
G01X-631741Y2838072D01*
G01X-632360Y2838001D01*
G01X-632978Y2837929D01*
G01X-633050Y2837311D01*
G01X-633121Y2836694D01*
G01X-634372Y2836550D01*
G01X-634437Y2833865D01*
G01X-634501Y2831180D01*
G01X-635120Y2831108D01*
G01X-635738Y2831037D01*
G01X-635810Y2830419D01*
G01X-635881Y2829801D01*
G01X-636500Y2829730D01*
G01X-637118Y2829658D01*
G01X-637261Y2828422D01*
G01X-638526Y2828277D01*
G01X-638526Y2820496D01*
G01X-637146Y2820496D01*
G01X-637146Y2819141D01*
G01X-635824Y2819072D01*
G01X-634501Y2819003D01*
G01X-634364Y2816389D01*
G01X-633743Y2816317D01*
G01X-633121Y2816246D01*
G01X-633050Y2815628D01*
G01X-632978Y2815010D01*
G01X-632360Y2814939D01*
G01X-631741Y2814867D01*
G01X-631670Y2814249D01*
G01X-631598Y2813631D01*
G01X-630980Y2813560D01*
G01X-630361Y2813489D01*
G01X-630290Y2812871D01*
G01X-630218Y2812253D01*
G01X-629600Y2812182D01*
G01X-628981Y2812110D01*
G01X-628909Y2811479D01*
G01X-628836Y2810847D01*
G01X-608626Y2810847D01*
G01X-608626Y2812225D01*
G01X-607269Y2812225D01*
G01X-607200Y2813546D01*
G01X-607131Y2814867D01*
G01X-605809Y2814936D01*
G01X-604486Y2815005D01*
G01X-604486Y2816361D01*
G01X-603129Y2816361D01*
G01X-603060Y2817682D01*
G01X-602991Y2819003D01*
G01X-602359Y2819075D01*
G01X-601726Y2819148D01*
G01X-601726Y2820496D01*
G01X-600346Y2820496D01*
G01X-600346Y2821875D01*
G01X-598966Y2821875D01*
G01X-598966Y2828308D01*
G01X-600346Y2828308D01*
G01X-600346Y2829663D01*
G01X-602991Y2829801D01*
G01X-603121Y2835171D01*
G01X-603746Y2835243D01*
G01X-604371Y2835315D01*
G01X-604443Y2835933D01*
G01X-604514Y2836551D01*
G01X-605133Y2836622D01*
G01X-605751Y2836694D01*
G01X-605823Y2837311D01*
G01X-605894Y2837929D01*
G01X-606513Y2838001D01*
G01X-607131Y2838072D01*
G01X-607195Y2841446D01*
G01X-607259Y2844820D01*
G01X-607885Y2844893D01*
G01X-608511Y2844965D01*
G01X-608573Y2849962D01*
G01X-608635Y2854959D01*
G01X-607277Y2854959D01*
G01X-607204Y2855590D01*
G01X-607131Y2856222D01*
G01X-602129Y2856284D01*
G01X-597126Y2856346D01*
G01X-597126Y2853611D01*
G01X-596494Y2853538D01*
G01X-595861Y2853465D01*
G01X-595790Y2852848D01*
G01X-595719Y2852230D01*
G01X-595100Y2852158D01*
G01X-594482Y2852087D01*
G01X-594410Y2851469D01*
G01X-594338Y2850851D01*
G01X-593720Y2850780D01*
G01X-593101Y2850708D01*
G01X-593037Y2848023D01*
G01X-592972Y2845338D01*
G01X-592347Y2845266D01*
G01X-591721Y2845194D01*
G01X-591650Y2844576D01*
G01X-591579Y2843959D01*
G01X-590960Y2843887D01*
G01X-590341Y2843816D01*
G01X-590270Y2843198D01*
G01X-590199Y2842580D01*
G01X-589580Y2842509D01*
G01X-588962Y2842437D01*
G01X-588895Y2840441D01*
G01X-588829Y2838446D01*
G01X-588205Y2838374D01*
G01X-587582Y2838302D01*
G01X-587510Y2837684D01*
G01X-587439Y2837066D01*
G01X-586820Y2836995D01*
G01X-586201Y2836923D01*
G01X-586130Y2836305D01*
G01X-586059Y2835688D01*
G01X-585440Y2835616D01*
G01X-584821Y2835545D01*
G01X-584692Y2830175D01*
G01X-584067Y2830103D01*
G01X-583442Y2830031D01*
G01X-583299Y2828795D01*
G01X-582680Y2828724D01*
G01X-582062Y2828652D01*
G01X-581989Y2828020D01*
G01X-581916Y2827389D01*
G01X-581487Y2827389D01*
G01X-581487Y2817280D01*
G01X-583296Y2817280D01*
G01X-583369Y2816648D01*
G01X-583442Y2816016D01*
G01X-584063Y2815944D01*
G01X-584684Y2815873D01*
G01X-584821Y2813259D01*
G01X-587438Y2813122D01*
G01X-587510Y2812501D01*
G01X-587582Y2811881D01*
G01X-588203Y2811809D01*
G01X-588824Y2811737D01*
G01X-588893Y2810430D01*
G01X-588962Y2809124D01*
G01X-589580Y2809052D01*
G01X-590199Y2808981D01*
G01X-590270Y2808363D01*
G01X-590341Y2807745D01*
G01X-590960Y2807674D01*
G01X-591579Y2807602D01*
G01X-591650Y2806985D01*
G01X-591721Y2806367D01*
G01X-592343Y2806295D01*
G01X-592964Y2806223D01*
G01X-593033Y2804917D01*
G01X-593101Y2803610D01*
G01X-593720Y2803538D01*
G01X-594338Y2803467D01*
G01X-594410Y2802849D01*
G01X-594482Y2802231D01*
G01X-595103Y2802159D01*
G01X-595724Y2802088D01*
G01X-595861Y2799474D01*
G01X-596483Y2799402D01*
G01X-597104Y2799331D01*
G01X-597173Y2798024D01*
G01X-597241Y2796717D01*
G01X-599858Y2796580D01*
G01X-600001Y2795338D01*
G01X-600631Y2795266D01*
G01X-601260Y2795194D01*
G01X-601381Y2780175D01*
G01X-602000Y2780104D01*
G01X-602619Y2780032D01*
G01X-602690Y2779414D01*
G01X-602761Y2778797D01*
G01X-603380Y2778725D01*
G01X-603999Y2778654D01*
G01X-604070Y2778036D01*
G01X-604141Y2777418D01*
G01X-604770Y2777346D01*
G01X-605399Y2777273D01*
G01X-605460Y2771142D01*
G01X-605521Y2765012D01*
G01X-606140Y2764940D01*
G01X-606758Y2764869D01*
G01X-606830Y2764251D01*
G01X-606901Y2763633D01*
G01X-607520Y2763562D01*
G01X-608139Y2763490D01*
G01X-608210Y2762872D01*
G01X-608281Y2762254D01*
G01X-608910Y2762182D01*
G01X-609539Y2762110D01*
G01X-609600Y2755979D01*
G01X-609661Y2749848D01*
G01X-610280Y2749777D01*
G01X-610899Y2749705D01*
G01X-610970Y2749087D01*
G01X-611041Y2748469D01*
G01X-611670Y2748397D01*
G01X-612299Y2748325D01*
G01X-612360Y2742194D01*
G01X-612421Y2736063D01*
G01X-613040Y2735992D01*
G01X-613658Y2735920D01*
G01X-613730Y2735302D01*
G01X-613801Y2734684D01*
G01X-614420Y2734613D01*
G01X-615039Y2734542D01*
G01X-615110Y2733924D01*
G01X-615181Y2733306D01*
G01X-615810Y2733234D01*
G01X-616439Y2733161D01*
G01X-616500Y2727030D01*
G01X-616561Y2720899D01*
G01X-617190Y2720827D01*
G01X-617818Y2720755D01*
G01X-617880Y2715313D01*
G01X-617941Y2709871D01*
G01X-618560Y2709800D01*
G01X-619178Y2709729D01*
G01X-619250Y2709111D01*
G01X-619321Y2708493D01*
G01X-619940Y2708422D01*
G01X-620558Y2708350D01*
G01X-620630Y2707732D01*
G01X-620701Y2707114D01*
G01X-621331Y2707042D01*
G01X-621961Y2706970D01*
G01X-622081Y2689194D01*
G01X-622700Y2689122D01*
G01X-623318Y2689051D01*
G01X-623390Y2688433D01*
G01X-623461Y2687815D01*
G01X-624080Y2687744D01*
G01X-624698Y2687673D01*
G01X-624770Y2687055D01*
G01X-624841Y2686437D01*
G01X-625460Y2686366D01*
G01X-626078Y2686294D01*
G01X-626150Y2685676D01*
G01X-626221Y2685058D01*
G01X-627459Y2684916D01*
G01X-627530Y2684298D01*
G01X-627601Y2683680D01*
G01X-628220Y2683608D01*
G01X-628838Y2683537D01*
G01X-628910Y2682919D01*
G01X-628981Y2682301D01*
G01X-629600Y2682230D01*
G01X-630218Y2682159D01*
G01X-630290Y2681541D01*
G01X-630361Y2680923D01*
G01X-630980Y2680852D01*
G01X-631598Y2680780D01*
G01X-631670Y2680162D01*
G01X-631741Y2679544D01*
G01X-632360Y2679473D01*
G01X-632978Y2679402D01*
G01X-633050Y2678784D01*
G01X-633121Y2678166D01*
G01X-633740Y2678094D01*
G01X-634358Y2678023D01*
G01X-634430Y2677405D01*
G01X-634501Y2676787D01*
G01X-635120Y2676716D01*
G01X-635738Y2676645D01*
G01X-635810Y2676027D01*
G01X-635881Y2675409D01*
G37*
G36*
G01X-641401Y2122859D02*
G01X-641343Y2089603D01*
G01X-641285Y2056346D01*
G01X-648646Y2056346D01*
G01X-648646Y2071510D01*
G01X-758586Y2071510D01*
G01X-758586Y2056346D01*
G01X-765946Y2056346D01*
G01X-765946Y2116081D01*
G01X-758586Y2116081D01*
G01X-758586Y2099539D01*
G01X-709366Y2099539D01*
G01X-709366Y2114213D01*
G01X-710631Y2114358D01*
G01X-710695Y2115591D01*
G01X-700626Y2115591D01*
G01X-700626Y2099539D01*
G01X-648646Y2099539D01*
G01X-648646Y2115591D01*
G01X-649279Y2115664D01*
G01X-649911Y2115737D01*
G01X-650041Y2121136D01*
G01X-651406Y2121136D01*
G01X-651406Y2122514D01*
G01X-652786Y2122514D01*
G01X-652786Y2123862D01*
G01X-653419Y2123935D01*
G01X-654051Y2124008D01*
G01X-654123Y2124626D01*
G01X-654194Y2125244D01*
G01X-654813Y2125315D01*
G01X-655431Y2125386D01*
G01X-655503Y2126004D01*
G01X-655574Y2126622D01*
G01X-656192Y2126693D01*
G01X-656811Y2126765D01*
G01X-656883Y2127383D01*
G01X-656954Y2128001D01*
G01X-657573Y2128072D01*
G01X-658191Y2128143D01*
G01X-658334Y2129379D01*
G01X-658953Y2129451D01*
G01X-659571Y2129522D01*
G01X-659644Y2130154D01*
G01X-659717Y2130785D01*
G01X-661066Y2130785D01*
G01X-661066Y2132164D01*
G01X-662446Y2132164D01*
G01X-662446Y2133525D01*
G01X-664459Y2133591D01*
G01X-666471Y2133657D01*
G01X-666544Y2134289D01*
G01X-666617Y2134921D01*
G01X-678515Y2134921D01*
G01X-678588Y2134289D01*
G01X-678661Y2133657D01*
G01X-684037Y2133528D01*
G01X-684109Y2132904D01*
G01X-684181Y2132279D01*
G01X-684800Y2132207D01*
G01X-685418Y2132136D01*
G01X-685490Y2131518D01*
G01X-685561Y2130900D01*
G01X-687559Y2130834D01*
G01X-689557Y2130768D01*
G01X-689701Y2129522D01*
G01X-690320Y2129451D01*
G01X-690938Y2129379D01*
G01X-691081Y2128143D01*
G01X-692318Y2128001D01*
G01X-692390Y2127383D01*
G01X-692461Y2126765D01*
G01X-693079Y2126693D01*
G01X-693698Y2126622D01*
G01X-693770Y2126004D01*
G01X-693841Y2125386D01*
G01X-694459Y2125315D01*
G01X-695078Y2125244D01*
G01X-695150Y2124626D01*
G01X-695221Y2124008D01*
G01X-695853Y2123935D01*
G01X-696486Y2123862D01*
G01X-696486Y2122514D01*
G01X-697835Y2122514D01*
G01X-697908Y2121883D01*
G01X-697981Y2121251D01*
G01X-699232Y2121107D01*
G01X-699296Y2118422D01*
G01X-699361Y2115737D01*
G01X-699993Y2115664D01*
G01X-699993Y2115664D01*
G01X-700626Y2115591D01*
G01X-710695Y2115591D01*
G01X-710769Y2117000D01*
G01X-712126Y2117000D01*
G01X-712126Y2118356D01*
G01X-714771Y2118494D01*
G01X-714909Y2121136D01*
G01X-716266Y2121136D01*
G01X-716266Y2122492D01*
G01X-718911Y2122629D01*
G01X-719056Y2123893D01*
G01X-720406Y2123893D01*
G01X-720406Y2125253D01*
G01X-722418Y2125320D01*
G01X-724431Y2125386D01*
G01X-724503Y2126015D01*
G01X-724576Y2126643D01*
G01X-731403Y2126704D01*
G01X-738231Y2126765D01*
G01X-738302Y2127383D01*
G01X-738374Y2128001D01*
G01X-738992Y2128072D01*
G01X-739611Y2128143D01*
G01X-739683Y2128768D01*
G01X-739755Y2129393D01*
G01X-742443Y2129457D01*
G01X-745131Y2129522D01*
G01X-745203Y2130150D01*
G01X-745276Y2130778D01*
G01X-751413Y2130839D01*
G01X-757551Y2130900D01*
G01X-757622Y2131521D01*
G01X-757694Y2132142D01*
G01X-760311Y2132279D01*
G01X-760456Y2133542D01*
G01X-761806Y2133542D01*
G01X-761806Y2134898D01*
G01X-764451Y2135036D01*
G01X-764519Y2136357D01*
G01X-764588Y2137678D01*
G01X-765946Y2137678D01*
G01X-765946Y2139026D01*
G01X-767211Y2139171D01*
G01X-767348Y2141785D01*
G01X-767969Y2141857D01*
G01X-768591Y2141928D01*
G01X-768650Y2156575D01*
G01X-768709Y2171222D01*
G01X-767326Y2171222D01*
G01X-767326Y2178114D01*
G01X-758586Y2178114D01*
G01X-758586Y2161580D01*
G01X-753123Y2161519D01*
G01X-747661Y2161457D01*
G01X-747516Y2160203D01*
G01X-742758Y2160141D01*
G01X-738001Y2160079D01*
G01X-737928Y2159447D01*
G01X-737855Y2158815D01*
G01X-736506Y2158815D01*
G01X-736506Y2157446D01*
G01X-731733Y2157384D01*
G01X-726961Y2157322D01*
G01X-726889Y2156697D01*
G01X-726817Y2156072D01*
G01X-724129Y2156008D01*
G01X-721441Y2155943D01*
G01X-721368Y2155311D01*
G01X-721295Y2154679D01*
G01X-719946Y2154679D01*
G01X-719946Y2153319D01*
G01X-717933Y2153253D01*
G01X-715921Y2153186D01*
G01X-715849Y2152565D01*
G01X-715778Y2151945D01*
G01X-713161Y2151808D01*
G01X-713088Y2151176D01*
G01X-713015Y2150544D01*
G01X-711666Y2150544D01*
G01X-711666Y2149188D01*
G01X-710343Y2149119D01*
G01X-709021Y2149051D01*
G01X-708952Y2147730D01*
G01X-708883Y2146408D01*
G01X-707526Y2146408D01*
G01X-707526Y2145060D01*
G01X-706261Y2144915D01*
G01X-706124Y2142301D01*
G01X-705502Y2142230D01*
G01X-704881Y2142158D01*
G01X-704819Y2137391D01*
G01X-704757Y2132623D01*
G01X-702466Y2132623D01*
G01X-702466Y2140894D01*
G01X-701104Y2140894D01*
G01X-701037Y2142905D01*
G01X-700971Y2144915D01*
G01X-699706Y2145060D01*
G01X-699706Y2146408D01*
G01X-698349Y2146408D01*
G01X-698211Y2149051D01*
G01X-696946Y2149196D01*
G01X-696946Y2150544D01*
G01X-695566Y2150544D01*
G01X-695566Y2151922D01*
G01X-694186Y2151922D01*
G01X-694186Y2153301D01*
G01X-692806Y2153301D01*
G01X-692806Y2154679D01*
G01X-691426Y2154679D01*
G01X-691426Y2156058D01*
G01X-690046Y2156058D01*
G01X-690046Y2157437D01*
G01X-687286Y2157437D01*
G01X-687286Y2158815D01*
G01X-685937Y2158815D01*
G01X-685864Y2159447D01*
G01X-685791Y2160079D01*
G01X-685172Y2160150D01*
G01X-684554Y2160221D01*
G01X-684482Y2160839D01*
G01X-684411Y2161457D01*
G01X-660721Y2161457D01*
G01X-660649Y2160836D01*
G01X-660578Y2160216D01*
G01X-657961Y2160079D01*
G01X-657890Y2159461D01*
G01X-657818Y2158843D01*
G01X-657200Y2158771D01*
G01X-656581Y2158700D01*
G01X-656436Y2157437D01*
G01X-655086Y2157437D01*
G01X-655086Y2156088D01*
G01X-653821Y2155943D01*
G01X-653750Y2155325D01*
G01X-653678Y2154707D01*
G01X-653060Y2154636D01*
G01X-652441Y2154565D01*
G01X-652368Y2153933D01*
G01X-652296Y2153301D01*
G01X-650946Y2153301D01*
G01X-650946Y2151953D01*
G01X-649681Y2151808D01*
G01X-649610Y2151190D01*
G01X-649538Y2150572D01*
G01X-648920Y2150500D01*
G01X-648301Y2150429D01*
G01X-648230Y2149811D01*
G01X-648158Y2149193D01*
G01X-647540Y2149122D01*
G01X-646921Y2149051D01*
G01X-646783Y2146408D01*
G01X-645426Y2146408D01*
G01X-645426Y2145060D01*
G01X-644794Y2144988D01*
G01X-644161Y2144915D01*
G01X-644097Y2142230D01*
G01X-644032Y2139545D01*
G01X-643406Y2139473D01*
G01X-642781Y2139401D01*
G01X-642721Y2131203D01*
G01X-642661Y2123004D01*
G01X-642031Y2122931D01*
G01X-641401Y2122859D01*
G37*
G36*
G01X-758586Y2287935D02*
G01X-767326Y2287935D01*
G01X-767326Y2301689D01*
G01X-768591Y2301835D01*
G01X-768650Y2312346D01*
G01X-768710Y2322857D01*
G01X-767326Y2322857D01*
G01X-767326Y2324235D01*
G01X-760426Y2324235D01*
G01X-760426Y2325614D01*
G01X-759046Y2325614D01*
G01X-759046Y2326502D01*
G01X-760311Y2326648D01*
G01X-760382Y2327266D01*
G01X-760453Y2327883D01*
G01X-761072Y2327955D01*
G01X-761691Y2328026D01*
G01X-761762Y2328647D01*
G01X-761834Y2329268D01*
G01X-764451Y2329405D01*
G01X-764580Y2334775D01*
G01X-765205Y2334847D01*
G01X-765831Y2334919D01*
G01X-765968Y2337532D01*
G01X-766589Y2337604D01*
G01X-767211Y2337676D01*
G01X-767282Y2338294D01*
G01X-767353Y2338912D01*
G01X-767972Y2338983D01*
G01X-768591Y2339054D01*
G01X-768615Y2344423D01*
G01X-755826Y2344423D01*
G01X-755826Y2336672D01*
G01X-755193Y2336600D01*
G01X-754561Y2336527D01*
G01X-754494Y2334531D01*
G01X-754428Y2332535D01*
G01X-753804Y2332463D01*
G01X-753804Y2332463D01*
G01X-753181Y2332391D01*
G01X-753051Y2326992D01*
G01X-691426Y2326992D01*
G01X-691426Y2328371D01*
G01X-690069Y2328371D01*
G01X-689931Y2331013D01*
G01X-688608Y2331082D01*
G01X-687286Y2331151D01*
G01X-687286Y2332506D01*
G01X-685906Y2332506D01*
G01X-685906Y2348589D01*
G01X-687286Y2348589D01*
G01X-687286Y2349944D01*
G01X-688608Y2350013D01*
G01X-689931Y2350082D01*
G01X-690000Y2351403D01*
G01X-690069Y2352724D01*
G01X-691426Y2352724D01*
G01X-691426Y2354080D01*
G01X-692748Y2354149D01*
G01X-694071Y2354218D01*
G01X-694140Y2355539D01*
G01X-694209Y2356860D01*
G01X-695566Y2356860D01*
G01X-695566Y2358224D01*
G01X-700971Y2358353D01*
G01X-701042Y2358971D01*
G01X-701114Y2359589D01*
G01X-701732Y2359660D01*
G01X-702351Y2359732D01*
G01X-702423Y2360356D01*
G01X-702495Y2360981D01*
G01X-705183Y2361046D01*
G01X-707871Y2361110D01*
G01X-707944Y2361742D01*
G01X-708016Y2362374D01*
G01X-732335Y2362374D01*
G01X-732408Y2361742D01*
G01X-732481Y2361110D01*
G01X-735169Y2361046D01*
G01X-737857Y2360981D01*
G01X-737929Y2360356D01*
G01X-738001Y2359732D01*
G01X-738619Y2359660D01*
G01X-739238Y2359589D01*
G01X-739309Y2358971D01*
G01X-739381Y2358353D01*
G01X-742069Y2358289D01*
G01X-744757Y2358224D01*
G01X-744829Y2357599D01*
G01X-744901Y2356975D01*
G01X-745519Y2356903D01*
G01X-746138Y2356832D01*
G01X-746209Y2356214D01*
G01X-746281Y2355596D01*
G01X-746899Y2355525D01*
G01X-747518Y2355453D01*
G01X-747589Y2354836D01*
G01X-747661Y2354218D01*
G01X-748279Y2354146D01*
G01X-748898Y2354075D01*
G01X-748969Y2353457D01*
G01X-749041Y2352839D01*
G01X-749662Y2352768D01*
G01X-750284Y2352696D01*
G01X-750352Y2351389D01*
G01X-750421Y2350082D01*
G01X-751729Y2350014D01*
G01X-753037Y2349945D01*
G01X-753109Y2349324D01*
G01X-753181Y2348704D01*
G01X-753804Y2348632D01*
G01X-754428Y2348560D01*
G01X-754494Y2346564D01*
G01X-754561Y2344568D01*
G01X-755193Y2344496D01*
G01X-755826Y2344423D01*
G01X-768615Y2344423D01*
G01X-768709Y2365590D01*
G01X-767349Y2365590D01*
G01X-767280Y2366912D01*
G01X-767211Y2368232D01*
G01X-766578Y2368305D01*
G01X-765946Y2368378D01*
G01X-765946Y2369726D01*
G01X-764566Y2369726D01*
G01X-764566Y2372483D01*
G01X-763186Y2372483D01*
G01X-763186Y2373861D01*
G01X-761806Y2373861D01*
G01X-761806Y2375240D01*
G01X-760426Y2375240D01*
G01X-760426Y2376618D01*
G01X-759046Y2376618D01*
G01X-759046Y2377997D01*
G01X-757666Y2377997D01*
G01X-757666Y2379375D01*
G01X-756286Y2379375D01*
G01X-756286Y2380754D01*
G01X-754906Y2380754D01*
G01X-754906Y2382132D01*
G01X-753526Y2382132D01*
G01X-753526Y2383511D01*
G01X-752176Y2383511D01*
G01X-752031Y2384775D01*
G01X-749386Y2384912D01*
G01X-749386Y2386268D01*
G01X-748036Y2386268D01*
G01X-747891Y2387531D01*
G01X-746568Y2387600D01*
G01X-745246Y2387669D01*
G01X-745246Y2389025D01*
G01X-736966Y2389025D01*
G01X-736966Y2390406D01*
G01X-719543Y2390347D01*
G01X-702121Y2390289D01*
G01X-702049Y2389664D01*
G01X-701977Y2389039D01*
G01X-699289Y2388975D01*
G01X-696601Y2388910D01*
G01X-696528Y2388278D01*
G01X-696455Y2387646D01*
G01X-695106Y2387646D01*
G01X-695106Y2386286D01*
G01X-693094Y2386219D01*
G01X-691081Y2386153D01*
G01X-691009Y2385528D01*
G01X-690937Y2384904D01*
G01X-685561Y2384775D01*
G01X-685490Y2384157D01*
G01X-685418Y2383539D01*
G01X-684800Y2383467D01*
G01X-684181Y2383396D01*
G01X-684110Y2382778D01*
G01X-684038Y2382160D01*
G01X-683420Y2382089D01*
G01X-682801Y2382017D01*
G01X-682729Y2381397D01*
G01X-682658Y2380776D01*
G01X-680041Y2380639D01*
G01X-679973Y2379332D01*
G01X-679904Y2378025D01*
G01X-679282Y2377954D01*
G01X-678661Y2377882D01*
G01X-678589Y2377264D01*
G01X-678518Y2376646D01*
G01X-677900Y2376575D01*
G01X-677281Y2376504D01*
G01X-677210Y2375886D01*
G01X-677138Y2375268D01*
G01X-676520Y2375196D01*
G01X-675901Y2375125D01*
G01X-675835Y2373129D01*
G01X-675768Y2371133D01*
G01X-674521Y2370990D01*
G01X-674450Y2370372D01*
G01X-674378Y2369754D01*
G01X-673760Y2369682D01*
G01X-673141Y2369611D01*
G01X-673075Y2367615D01*
G01X-673009Y2365619D01*
G01X-672385Y2365547D01*
G01X-671761Y2365476D01*
G01X-671761Y2341811D01*
G01X-672385Y2341739D01*
G01X-673009Y2341668D01*
G01X-673075Y2339672D01*
G01X-673141Y2337676D01*
G01X-673760Y2337604D01*
G01X-674378Y2337533D01*
G01X-674450Y2336915D01*
G01X-674521Y2336297D01*
G01X-675145Y2336225D01*
G01X-675768Y2336153D01*
G01X-675835Y2334157D01*
G01X-675901Y2332162D01*
G01X-676523Y2332090D01*
G01X-677144Y2332018D01*
G01X-677212Y2330711D01*
G01X-677281Y2329405D01*
G01X-677900Y2329333D01*
G01X-678518Y2329262D01*
G01X-678589Y2328644D01*
G01X-678661Y2328026D01*
G01X-679926Y2327881D01*
G01X-679926Y2326992D01*
G01X-628866Y2326992D01*
G01X-628866Y2318568D01*
G01X-629173Y2318262D01*
G01X-630239Y2318262D01*
G01X-630300Y2312116D01*
G01X-630361Y2305970D01*
G01X-631617Y2305826D01*
G01X-631679Y2301073D01*
G01X-631741Y2296321D01*
G01X-632360Y2296249D01*
G01X-632978Y2296178D01*
G01X-633050Y2295560D01*
G01X-633121Y2294942D01*
G01X-634386Y2294797D01*
G01X-634386Y2287935D01*
G01X-640366Y2287935D01*
G01X-640366Y2290661D01*
G01X-640999Y2290734D01*
G01X-641631Y2290807D01*
G01X-641695Y2294181D01*
G01X-641758Y2297555D01*
G01X-642385Y2297627D01*
G01X-643011Y2297699D01*
G01X-643083Y2298317D01*
G01X-643154Y2298935D01*
G01X-643773Y2299006D01*
G01X-644391Y2299078D01*
G01X-644464Y2299709D01*
G01X-644537Y2300341D01*
G01X-758586Y2300341D01*
G01X-758586Y2287935D01*
G37*
G36*
G01X-677913Y2406528D02*
G01X-678546Y2406455D01*
G01X-678546Y2399593D01*
G01X-684526Y2399593D01*
G01X-684526Y2403698D01*
G01X-685791Y2403844D01*
G01X-685917Y2411999D01*
G01X-720354Y2412057D01*
G01X-754791Y2412115D01*
G01X-754862Y2412733D01*
G01X-754933Y2413351D01*
G01X-755552Y2413422D01*
G01X-756171Y2413493D01*
G01X-756242Y2414111D01*
G01X-756313Y2414729D01*
G01X-757551Y2414872D01*
G01X-757696Y2416135D01*
G01X-760426Y2416135D01*
G01X-760426Y2417483D01*
G01X-761691Y2417629D01*
G01X-761762Y2418247D01*
G01X-761833Y2418865D01*
G01X-762452Y2418936D01*
G01X-763071Y2419007D01*
G01X-763143Y2419639D01*
G01X-763216Y2420271D01*
G01X-764566Y2420271D01*
G01X-764566Y2421619D01*
G01X-765198Y2421692D01*
G01X-765831Y2421764D01*
G01X-765968Y2424378D01*
G01X-766589Y2424450D01*
G01X-767211Y2424521D01*
G01X-767282Y2425139D01*
G01X-767353Y2425757D01*
G01X-767972Y2425828D01*
G01X-768591Y2425900D01*
G01X-768650Y2438479D01*
G01X-768709Y2451058D01*
G01X-767344Y2451058D01*
G01X-767277Y2453068D01*
G01X-767211Y2455078D01*
G01X-765946Y2455224D01*
G01X-765946Y2456572D01*
G01X-764596Y2456572D01*
G01X-764451Y2457835D01*
G01X-763832Y2457906D01*
G01X-763214Y2457978D01*
G01X-763142Y2458596D01*
G01X-763071Y2459214D01*
G01X-762438Y2459286D01*
G01X-761806Y2459359D01*
G01X-761806Y2460707D01*
G01X-760449Y2460707D01*
G01X-760380Y2462028D01*
G01X-760311Y2463349D01*
G01X-759046Y2463494D01*
G01X-759046Y2464843D01*
G01X-757666Y2464843D01*
G01X-757666Y2466221D01*
G01X-756286Y2466221D01*
G01X-756286Y2468504D01*
G01X-761691Y2468633D01*
G01X-761763Y2469265D01*
G01X-761836Y2469897D01*
G01X-768706Y2469897D01*
G01X-768706Y2484142D01*
G01X-767326Y2484142D01*
G01X-767326Y2485520D01*
G01X-765946Y2485520D01*
G01X-765946Y2506198D01*
G01X-761346Y2506198D01*
G01X-761346Y2504850D01*
G01X-760713Y2504777D01*
G01X-760081Y2504704D01*
G01X-760009Y2504086D01*
G01X-759938Y2503468D01*
G01X-759319Y2503397D01*
G01X-758701Y2503326D01*
G01X-758637Y2499937D01*
G01X-758573Y2496548D01*
G01X-674400Y2496548D01*
G01X-674460Y2488794D01*
G01X-674521Y2481040D01*
G01X-675780Y2480895D01*
G01X-675841Y2472697D01*
G01X-675901Y2464498D01*
G01X-677166Y2464353D01*
G01X-677166Y2457490D01*
G01X-684526Y2457490D01*
G01X-684526Y2461596D01*
G01X-685791Y2461741D01*
G01X-685855Y2465130D01*
G01X-685918Y2468519D01*
G01X-744755Y2468519D01*
G01X-744828Y2467887D01*
G01X-744901Y2467255D01*
G01X-745519Y2467184D01*
G01X-746138Y2467112D01*
G01X-746209Y2466494D01*
G01X-746281Y2465877D01*
G01X-746899Y2465805D01*
G01X-747518Y2465734D01*
G01X-747589Y2465116D01*
G01X-747661Y2464498D01*
G01X-748279Y2464426D01*
G01X-748898Y2464355D01*
G01X-748969Y2463737D01*
G01X-749041Y2463119D01*
G01X-749666Y2463047D01*
G01X-750291Y2462975D01*
G01X-750356Y2460290D01*
G01X-750421Y2457605D01*
G01X-751686Y2457460D01*
G01X-751686Y2446953D01*
G01X-751053Y2446880D01*
G01X-750421Y2446807D01*
G01X-750352Y2445500D01*
G01X-750284Y2444193D01*
G01X-749662Y2444122D01*
G01X-749041Y2444050D01*
G01X-748969Y2443432D01*
G01X-748898Y2442814D01*
G01X-748279Y2442743D01*
G01X-747661Y2442672D01*
G01X-747589Y2442054D01*
G01X-747518Y2441436D01*
G01X-746899Y2441365D01*
G01X-746281Y2441293D01*
G01X-746209Y2440672D01*
G01X-746137Y2440052D01*
G01X-744829Y2439983D01*
G01X-743521Y2439915D01*
G01X-743448Y2439283D01*
G01X-743375Y2438651D01*
G01X-674406Y2438651D01*
G01X-674406Y2419199D01*
G01X-674713Y2418892D01*
G01X-675778Y2418892D01*
G01X-675839Y2413436D01*
G01X-675901Y2407979D01*
G01X-676520Y2407908D01*
G01X-677138Y2407837D01*
G01X-677281Y2406601D01*
G01X-677913Y2406528D01*
G37*
G36*
G01X-702739Y2184600D02*
G01X-707496Y2184538D01*
G01X-707641Y2183283D01*
G01X-732711Y2183283D01*
G01X-732855Y2184538D01*
G01X-737613Y2184600D01*
G01X-742371Y2184662D01*
G01X-742442Y2185280D01*
G01X-742514Y2185898D01*
G01X-743132Y2185969D01*
G01X-743751Y2186040D01*
G01X-743822Y2186658D01*
G01X-743894Y2187276D01*
G01X-744512Y2187348D01*
G01X-745131Y2187419D01*
G01X-745203Y2188045D01*
G01X-745275Y2188671D01*
G01X-748653Y2188734D01*
G01X-752031Y2188797D01*
G01X-752100Y2190119D01*
G01X-752169Y2191439D01*
G01X-753526Y2191439D01*
G01X-753526Y2192795D01*
G01X-754848Y2192864D01*
G01X-756171Y2192933D01*
G01X-756309Y2195575D01*
G01X-757666Y2195575D01*
G01X-757666Y2196931D01*
G01X-760311Y2197068D01*
G01X-760448Y2199682D01*
G01X-761069Y2199754D01*
G01X-761691Y2199826D01*
G01X-761757Y2201836D01*
G01X-761824Y2203846D01*
G01X-763186Y2203846D01*
G01X-763186Y2205224D01*
G01X-764566Y2205224D01*
G01X-764566Y2207982D01*
G01X-765946Y2207982D01*
G01X-765946Y2209330D01*
G01X-767211Y2209475D01*
G01X-767277Y2211471D01*
G01X-767343Y2213467D01*
G01X-767967Y2213539D01*
G01X-768591Y2213611D01*
G01X-768591Y2231386D01*
G01X-762726Y2231386D01*
G01X-762726Y2229119D01*
G01X-761346Y2229119D01*
G01X-761346Y2227771D01*
G01X-760081Y2227625D01*
G01X-759943Y2225012D01*
G01X-759322Y2224940D01*
G01X-758701Y2224868D01*
G01X-758636Y2222176D01*
G01X-758571Y2219483D01*
G01X-755876Y2219419D01*
G01X-753181Y2219354D01*
G01X-753109Y2218734D01*
G01X-753037Y2218113D01*
G01X-751729Y2218044D01*
G01X-750421Y2217976D01*
G01X-750348Y2217344D01*
G01X-750275Y2216712D01*
G01X-748926Y2216712D01*
G01X-748926Y2215348D01*
G01X-746223Y2215284D01*
G01X-743521Y2215219D01*
G01X-743449Y2214601D01*
G01X-743378Y2213983D01*
G01X-742759Y2213912D01*
G01X-742141Y2213840D01*
G01X-742068Y2213214D01*
G01X-741996Y2212587D01*
G01X-737929Y2212524D01*
G01X-737929Y2212524D01*
G01X-733861Y2212462D01*
G01X-733715Y2211198D01*
G01X-713506Y2211198D01*
G01X-713506Y2212577D01*
G01X-699706Y2212577D01*
G01X-699706Y2213955D01*
G01X-698357Y2213955D01*
G01X-698284Y2214587D01*
G01X-698211Y2215219D01*
G01X-694818Y2215282D01*
G01X-691426Y2215346D01*
G01X-691426Y2216712D01*
G01X-690077Y2216712D01*
G01X-690004Y2217344D01*
G01X-689931Y2217976D01*
G01X-688608Y2218045D01*
G01X-687286Y2218114D01*
G01X-687286Y2219469D01*
G01X-684526Y2219469D01*
G01X-684526Y2220848D01*
G01X-683146Y2220848D01*
G01X-683146Y2222226D01*
G01X-681766Y2222226D01*
G01X-681766Y2224983D01*
G01X-680386Y2224983D01*
G01X-680386Y2234143D01*
G01X-681019Y2234215D01*
G01X-681651Y2234288D01*
G01X-681720Y2235609D01*
G01X-681789Y2236930D01*
G01X-683146Y2236930D01*
G01X-683146Y2238286D01*
G01X-684469Y2238355D01*
G01X-685791Y2238424D01*
G01X-685860Y2239745D01*
G01X-685929Y2241066D01*
G01X-687286Y2241066D01*
G01X-687286Y2242444D01*
G01X-690046Y2242444D01*
G01X-690046Y2243823D01*
G01X-691426Y2243823D01*
G01X-691426Y2245187D01*
G01X-696831Y2245316D01*
G01X-696904Y2245948D01*
G01X-696977Y2246580D01*
G01X-743375Y2246580D01*
G01X-743448Y2245948D01*
G01X-743521Y2245316D01*
G01X-746209Y2245251D01*
G01X-748896Y2245187D01*
G01X-748969Y2244562D01*
G01X-749041Y2243937D01*
G01X-749659Y2243866D01*
G01X-750278Y2243795D01*
G01X-750349Y2243177D01*
G01X-750421Y2242559D01*
G01X-751729Y2242490D01*
G01X-753037Y2242422D01*
G01X-753109Y2241801D01*
G01X-753181Y2241181D01*
G01X-753802Y2241109D01*
G01X-754423Y2241037D01*
G01X-754492Y2239730D01*
G01X-754561Y2238424D01*
G01X-757177Y2238287D01*
G01X-757249Y2237666D01*
G01X-757321Y2237045D01*
G01X-757939Y2236974D01*
G01X-758558Y2236902D01*
G01X-758629Y2236284D01*
G01X-758701Y2235666D01*
G01X-759319Y2235595D01*
G01X-759938Y2235524D01*
G01X-760009Y2234906D01*
G01X-760081Y2234288D01*
G01X-760702Y2234216D01*
G01X-761323Y2234145D01*
G01X-761461Y2231531D01*
G01X-762093Y2231458D01*
G01X-762726Y2231386D01*
G01X-768591Y2231386D01*
G01X-768591Y2244167D01*
G01X-767958Y2244240D01*
G01X-767326Y2244313D01*
G01X-767326Y2245661D01*
G01X-765946Y2245661D01*
G01X-765946Y2251175D01*
G01X-764583Y2251175D01*
G01X-764517Y2253185D01*
G01X-764451Y2255195D01*
G01X-763818Y2255268D01*
G01X-763186Y2255341D01*
G01X-763186Y2256689D01*
G01X-761806Y2256689D01*
G01X-761806Y2259446D01*
G01X-760426Y2259446D01*
G01X-760426Y2260824D01*
G01X-759046Y2260824D01*
G01X-759046Y2262203D01*
G01X-757666Y2262203D01*
G01X-757666Y2263581D01*
G01X-756286Y2263581D01*
G01X-756286Y2264960D01*
G01X-754906Y2264960D01*
G01X-754906Y2266338D01*
G01X-753526Y2266338D01*
G01X-753526Y2267717D01*
G01X-752176Y2267717D01*
G01X-752031Y2268980D01*
G01X-749386Y2269118D01*
G01X-749386Y2270474D01*
G01X-748036Y2270474D01*
G01X-747891Y2271737D01*
G01X-747272Y2271809D01*
G01X-746654Y2271880D01*
G01X-746582Y2272498D01*
G01X-746511Y2273116D01*
G01X-743808Y2273180D01*
G01X-741106Y2273245D01*
G01X-741106Y2274609D01*
G01X-735586Y2274609D01*
G01X-735586Y2275988D01*
G01X-734236Y2275988D01*
G01X-734091Y2277251D01*
G01X-706261Y2277251D01*
G01X-706190Y2276633D01*
G01X-706118Y2276015D01*
G01X-705499Y2275944D01*
G01X-704881Y2275873D01*
G01X-704809Y2275248D01*
G01X-704737Y2274623D01*
G01X-702049Y2274559D01*
G01X-699361Y2274494D01*
G01X-699289Y2273868D01*
G01X-699217Y2273243D01*
G01X-695839Y2273179D01*
G01X-692461Y2273116D01*
G01X-692323Y2270474D01*
G01X-690966Y2270474D01*
G01X-690966Y2269118D01*
G01X-688321Y2268980D01*
G01X-688250Y2268363D01*
G01X-688178Y2267745D01*
G01X-687559Y2267673D01*
G01X-686941Y2267602D01*
G01X-686870Y2266984D01*
G01X-686798Y2266366D01*
G01X-686180Y2266295D01*
G01X-685561Y2266223D01*
G01X-685490Y2265605D01*
G01X-685418Y2264988D01*
G01X-684800Y2264916D01*
G01X-684181Y2264845D01*
G01X-684110Y2264227D01*
G01X-684038Y2263609D01*
G01X-683420Y2263538D01*
G01X-682801Y2263466D01*
G01X-682730Y2262848D01*
G01X-682658Y2262230D01*
G01X-682040Y2262159D01*
G01X-681421Y2262088D01*
G01X-681350Y2261470D01*
G01X-681278Y2260852D01*
G01X-680660Y2260781D01*
G01X-680041Y2260709D01*
G01X-679903Y2258067D01*
G01X-678546Y2258067D01*
G01X-678546Y2256719D01*
G01X-677913Y2256646D01*
G01X-677281Y2256574D01*
G01X-677210Y2255956D01*
G01X-677138Y2255338D01*
G01X-676520Y2255267D01*
G01X-675901Y2255195D01*
G01X-675836Y2252496D01*
G01X-675772Y2249796D01*
G01X-674406Y2249796D01*
G01X-674406Y2248448D01*
G01X-673141Y2248303D01*
G01X-673075Y2246307D01*
G01X-673009Y2244311D01*
G01X-672385Y2244239D01*
G01X-671761Y2244167D01*
G01X-671702Y2230365D01*
G01X-671642Y2216562D01*
G01X-671953Y2216253D01*
G01X-673011Y2216253D01*
G01X-673141Y2210853D01*
G01X-673760Y2210782D01*
G01X-674378Y2210711D01*
G01X-674450Y2210093D01*
G01X-674521Y2209475D01*
G01X-675146Y2209403D01*
G01X-675772Y2209331D01*
G01X-675836Y2206646D01*
G01X-675901Y2203961D01*
G01X-676520Y2203890D01*
G01X-677138Y2203818D01*
G01X-677210Y2203200D01*
G01X-677281Y2202582D01*
G01X-677900Y2202511D01*
G01X-678518Y2202440D01*
G01X-678589Y2201822D01*
G01X-678661Y2201204D01*
G01X-679285Y2201132D01*
G01X-679909Y2201060D01*
G01X-679975Y2199064D01*
G01X-680041Y2197068D01*
G01X-682658Y2196931D01*
G01X-682729Y2196311D01*
G01X-682801Y2195690D01*
G01X-683422Y2195618D01*
G01X-684044Y2195547D01*
G01X-684112Y2194240D01*
G01X-684181Y2192933D01*
G01X-685489Y2192865D01*
G01X-686798Y2192796D01*
G01X-686869Y2192175D01*
G01X-686941Y2191554D01*
G01X-688939Y2191488D01*
G01X-690937Y2191422D01*
G01X-691009Y2190799D01*
G01X-691081Y2190176D01*
G01X-691714Y2190103D01*
G01X-692346Y2190031D01*
G01X-692346Y2188683D01*
G01X-695075Y2188683D01*
G01X-695221Y2187419D01*
G01X-695840Y2187348D01*
G01X-696458Y2187276D01*
G01X-696601Y2186040D01*
G01X-697220Y2185969D01*
G01X-697838Y2185898D01*
G01X-697909Y2185280D01*
G01X-697981Y2184662D01*
G01X-702739Y2184600D01*
G37*
G36*
G01X-682053Y2602275D02*
G01X-682686Y2602203D01*
G01X-682686Y2600855D01*
G01X-687286Y2600855D01*
G01X-687286Y2609126D01*
G01X-688666Y2609126D01*
G01X-688666Y2610504D01*
G01X-690046Y2610504D01*
G01X-690046Y2611883D01*
G01X-691426Y2611883D01*
G01X-691426Y2613261D01*
G01X-758586Y2613261D01*
G01X-758586Y2600855D01*
G01X-765946Y2600855D01*
G01X-765946Y2655076D01*
G01X-758586Y2655076D01*
G01X-758586Y2639912D01*
G01X-712126Y2639912D01*
G01X-712126Y2641291D01*
G01X-703846Y2641291D01*
G01X-703846Y2642669D01*
G01X-702496Y2642669D01*
G01X-702351Y2643933D01*
G01X-701732Y2644004D01*
G01X-701114Y2644076D01*
G01X-701042Y2644694D01*
G01X-700971Y2645311D01*
G01X-698958Y2645378D01*
G01X-696946Y2645444D01*
G01X-696946Y2646805D01*
G01X-695566Y2646805D01*
G01X-695566Y2648183D01*
G01X-694216Y2648183D01*
G01X-694144Y2648815D01*
G01X-694071Y2649447D01*
G01X-692058Y2649513D01*
G01X-690046Y2649580D01*
G01X-690046Y2653207D01*
G01X-691311Y2653353D01*
G01X-691454Y2654589D01*
G01X-692691Y2654731D01*
G01X-692762Y2655349D01*
G01X-692834Y2655967D01*
G01X-693452Y2656038D01*
G01X-694071Y2656110D01*
G01X-694142Y2656728D01*
G01X-694214Y2657346D01*
G01X-694832Y2657417D01*
G01X-695451Y2657488D01*
G01X-695522Y2658106D01*
G01X-695594Y2658724D01*
G01X-696212Y2658795D01*
G01X-696831Y2658867D01*
G01X-696902Y2659485D01*
G01X-696974Y2660102D01*
G01X-697592Y2660174D01*
G01X-698211Y2660245D01*
G01X-698211Y2678396D01*
G01X-696889Y2678464D01*
G01X-695566Y2678533D01*
G01X-695566Y2679894D01*
G01X-686424Y2679834D01*
G01X-677281Y2679774D01*
G01X-677136Y2678510D01*
G01X-675786Y2678510D01*
G01X-675786Y2677162D01*
G01X-674521Y2677017D01*
G01X-674384Y2674403D01*
G01X-673762Y2674332D01*
G01X-673141Y2674260D01*
G01X-672998Y2673024D01*
G01X-671761Y2672881D01*
G01X-671761Y2657488D01*
G01X-672998Y2657346D01*
G01X-673070Y2656728D01*
G01X-673141Y2656110D01*
G01X-673762Y2656038D01*
G01X-674384Y2655966D01*
G01X-674521Y2653353D01*
G01X-675786Y2653207D01*
G01X-675786Y2651859D01*
G01X-677136Y2651859D01*
G01X-677281Y2650596D01*
G01X-677900Y2650524D01*
G01X-678518Y2650453D01*
G01X-678589Y2649835D01*
G01X-678661Y2649217D01*
G01X-679294Y2649145D01*
G01X-679926Y2649072D01*
G01X-679926Y2647724D01*
G01X-681276Y2647724D01*
G01X-681348Y2647092D01*
G01X-681421Y2646460D01*
G01X-682040Y2646389D01*
G01X-682658Y2646317D01*
G01X-682730Y2645700D01*
G01X-682801Y2645082D01*
G01X-684066Y2644936D01*
G01X-684066Y2643588D01*
G01X-686795Y2643588D01*
G01X-686868Y2642957D01*
G01X-686941Y2642325D01*
G01X-687559Y2642253D01*
G01X-688178Y2642182D01*
G01X-688250Y2641564D01*
G01X-688321Y2640946D01*
G01X-688940Y2640875D01*
G01X-689558Y2640803D01*
G01X-689630Y2640186D01*
G01X-689701Y2639568D01*
G01X-691023Y2639499D01*
G01X-692346Y2639430D01*
G01X-692346Y2638539D01*
G01X-673141Y2638419D01*
G01X-673070Y2637801D01*
G01X-672998Y2637183D01*
G01X-671761Y2637041D01*
G01X-671698Y2633581D01*
G01X-671635Y2630121D01*
G01X-671953Y2629803D01*
G01X-673011Y2629803D01*
G01X-673141Y2624404D01*
G01X-673760Y2624333D01*
G01X-674378Y2624262D01*
G01X-674450Y2623644D01*
G01X-674521Y2623026D01*
G01X-675147Y2622954D01*
G01X-675774Y2622882D01*
G01X-675837Y2619507D01*
G01X-675901Y2616133D01*
G01X-676526Y2616061D01*
G01X-677152Y2615989D01*
G01X-677216Y2613304D01*
G01X-677281Y2610619D01*
G01X-677900Y2610548D01*
G01X-678518Y2610477D01*
G01X-678589Y2609859D01*
G01X-678661Y2609241D01*
G01X-679912Y2609097D01*
G01X-679976Y2606412D01*
G01X-680041Y2603727D01*
G01X-680660Y2603655D01*
G01X-681278Y2603584D01*
G01X-681350Y2602966D01*
G01X-681421Y2602348D01*
G01X-682053Y2602275D01*
G37*
G36*
G01X-737886Y2518145D02*
G01X-761806Y2518145D01*
G01X-761806Y2519493D01*
G01X-762438Y2519565D01*
G01X-763071Y2519638D01*
G01X-763142Y2520256D01*
G01X-763214Y2520874D01*
G01X-763832Y2520945D01*
G01X-764451Y2521017D01*
G01X-764515Y2523701D01*
G01X-764580Y2526387D01*
G01X-765205Y2526459D01*
G01X-765831Y2526531D01*
G01X-765895Y2529215D01*
G01X-765960Y2531901D01*
G01X-766585Y2531973D01*
G01X-767211Y2532045D01*
G01X-767282Y2532662D01*
G01X-767353Y2533280D01*
G01X-767972Y2533352D01*
G01X-768591Y2533423D01*
G01X-768649Y2550827D01*
G01X-768708Y2568230D01*
G01X-767340Y2568230D01*
G01X-767211Y2573629D01*
G01X-765946Y2573775D01*
G01X-765946Y2575123D01*
G01X-764588Y2575123D01*
G01X-764519Y2576444D01*
G01X-764451Y2577765D01*
G01X-763832Y2577836D01*
G01X-763214Y2577908D01*
G01X-763142Y2578525D01*
G01X-763071Y2579143D01*
G01X-761806Y2579289D01*
G01X-761806Y2580637D01*
G01X-760449Y2580637D01*
G01X-760311Y2583279D01*
G01X-759046Y2583424D01*
G01X-759046Y2584772D01*
G01X-757666Y2584772D01*
G01X-757666Y2586151D01*
G01X-756316Y2586151D01*
G01X-756244Y2586783D01*
G01X-756171Y2587414D01*
G01X-754848Y2587483D01*
G01X-753526Y2587552D01*
G01X-753526Y2588908D01*
G01X-752176Y2588908D01*
G01X-752103Y2589539D01*
G01X-752031Y2590171D01*
G01X-750018Y2590238D01*
G01X-748006Y2590304D01*
G01X-748006Y2591670D01*
G01X-738173Y2591610D01*
G01X-728341Y2591550D01*
G01X-728197Y2590308D01*
G01X-726889Y2590240D01*
G01X-725581Y2590171D01*
G01X-725508Y2589539D01*
G01X-725435Y2588908D01*
G01X-724086Y2588908D01*
G01X-724086Y2587552D01*
G01X-721441Y2587414D01*
G01X-721369Y2586797D01*
G01X-721298Y2586179D01*
G01X-720679Y2586107D01*
G01X-720061Y2586036D01*
G01X-719989Y2585418D01*
G01X-719918Y2584800D01*
G01X-719299Y2584729D01*
G01X-718681Y2584657D01*
G01X-718608Y2584026D01*
G01X-718535Y2583394D01*
G01X-717186Y2583394D01*
G01X-717186Y2582046D01*
G01X-716553Y2581973D01*
G01X-715921Y2581900D01*
G01X-715852Y2580593D01*
G01X-715784Y2579287D01*
G01X-715162Y2579215D01*
G01X-714541Y2579143D01*
G01X-714469Y2578525D01*
G01X-714398Y2577908D01*
G01X-713779Y2577836D01*
G01X-713161Y2577765D01*
G01X-713024Y2575151D01*
G01X-712402Y2575080D01*
G01X-711781Y2575008D01*
G01X-711710Y2574390D01*
G01X-711638Y2573772D01*
G01X-710401Y2573629D01*
G01X-710332Y2572322D01*
G01X-710264Y2571016D01*
G01X-709021Y2570872D01*
G01X-708959Y2566120D01*
G01X-708897Y2561367D01*
G01X-707641Y2561223D01*
G01X-707511Y2555824D01*
G01X-706146Y2555824D01*
G01X-706146Y2554476D01*
G01X-704881Y2554330D01*
G01X-704812Y2553009D01*
G01X-704743Y2551688D01*
G01X-703386Y2551688D01*
G01X-703386Y2550340D01*
G01X-702753Y2550268D01*
G01X-702121Y2550195D01*
G01X-702052Y2548888D01*
G01X-701984Y2547581D01*
G01X-701362Y2547509D01*
G01X-700741Y2547438D01*
G01X-700604Y2544824D01*
G01X-699982Y2544752D01*
G01X-699361Y2544681D01*
G01X-699218Y2543445D01*
G01X-698599Y2543374D01*
G01X-697981Y2543302D01*
G01X-697909Y2542682D01*
G01X-697838Y2542061D01*
G01X-695221Y2541924D01*
G01X-695075Y2540660D01*
G01X-690046Y2540660D01*
G01X-690046Y2542039D01*
G01X-687286Y2542039D01*
G01X-687286Y2543417D01*
G01X-685937Y2543417D01*
G01X-685864Y2544049D01*
G01X-685791Y2544681D01*
G01X-685172Y2544752D01*
G01X-684554Y2544824D01*
G01X-684482Y2545441D01*
G01X-684411Y2546059D01*
G01X-683146Y2546205D01*
G01X-683146Y2547553D01*
G01X-681766Y2547553D01*
G01X-681766Y2550310D01*
G01X-680386Y2550310D01*
G01X-680386Y2563605D01*
G01X-681019Y2563677D01*
G01X-681651Y2563750D01*
G01X-681716Y2566446D01*
G01X-681781Y2569141D01*
G01X-687236Y2569203D01*
G01X-692691Y2569264D01*
G01X-692835Y2570513D01*
G01X-695523Y2570578D01*
G01X-698211Y2570643D01*
G01X-698284Y2571274D01*
G01X-698357Y2571906D01*
G01X-699706Y2571906D01*
G01X-699706Y2573285D01*
G01X-702466Y2573285D01*
G01X-702466Y2584776D01*
G01X-690563Y2584717D01*
G01X-678661Y2584657D01*
G01X-678589Y2584039D01*
G01X-678518Y2583422D01*
G01X-677900Y2583350D01*
G01X-677281Y2583279D01*
G01X-677138Y2582043D01*
G01X-676520Y2581972D01*
G01X-675901Y2581900D01*
G01X-675836Y2579201D01*
G01X-675772Y2576501D01*
G01X-674406Y2576501D01*
G01X-674406Y2575153D01*
G01X-673774Y2575080D01*
G01X-673141Y2575008D01*
G01X-673076Y2572323D01*
G01X-673012Y2569638D01*
G01X-672386Y2569566D01*
G01X-671761Y2569494D01*
G01X-671702Y2555691D01*
G01X-671642Y2541889D01*
G01X-671953Y2541579D01*
G01X-673011Y2541579D01*
G01X-673141Y2536180D01*
G01X-673760Y2536109D01*
G01X-674378Y2536037D01*
G01X-674450Y2535419D01*
G01X-674521Y2534802D01*
G01X-675768Y2534658D01*
G01X-675835Y2532662D01*
G01X-675901Y2530666D01*
G01X-676523Y2530594D01*
G01X-677144Y2530523D01*
G01X-677281Y2527909D01*
G01X-677900Y2527838D01*
G01X-678518Y2527766D01*
G01X-678589Y2527148D01*
G01X-678661Y2526531D01*
G01X-679282Y2526459D01*
G01X-679904Y2526387D01*
G01X-679973Y2525080D01*
G01X-680041Y2523774D01*
G01X-682658Y2523637D01*
G01X-682801Y2522395D01*
G01X-683420Y2522324D01*
G01X-684038Y2522252D01*
G01X-684110Y2521635D01*
G01X-684181Y2521017D01*
G01X-686798Y2520880D01*
G01X-686869Y2520259D01*
G01X-686941Y2519638D01*
G01X-688939Y2519572D01*
G01X-690937Y2519506D01*
G01X-691081Y2518260D01*
G01X-712011Y2518260D01*
G01X-712083Y2518885D01*
G01X-712155Y2519511D01*
G01X-715533Y2519575D01*
G01X-718911Y2519638D01*
G01X-718980Y2520959D01*
G01X-719049Y2522280D01*
G01X-720406Y2522280D01*
G01X-720406Y2523636D01*
G01X-721728Y2523705D01*
G01X-723051Y2523774D01*
G01X-723120Y2525095D01*
G01X-723189Y2526416D01*
G01X-724546Y2526416D01*
G01X-724546Y2527771D01*
G01X-727191Y2527909D01*
G01X-727255Y2530594D01*
G01X-727320Y2533279D01*
G01X-727946Y2533351D01*
G01X-728571Y2533423D01*
G01X-728642Y2534041D01*
G01X-728714Y2534659D01*
G01X-729332Y2534730D01*
G01X-729951Y2534802D01*
G01X-730017Y2536798D01*
G01X-730083Y2538793D01*
G01X-730707Y2538865D01*
G01X-731331Y2538937D01*
G01X-731394Y2543015D01*
G01X-731456Y2547093D01*
G01X-732826Y2547093D01*
G01X-732826Y2548441D01*
G01X-734091Y2548587D01*
G01X-734157Y2550583D01*
G01X-734223Y2552578D01*
G01X-734847Y2552650D01*
G01X-735471Y2552722D01*
G01X-735535Y2555407D01*
G01X-735600Y2558092D01*
G01X-736851Y2558236D01*
G01X-736922Y2558854D01*
G01X-736994Y2559472D01*
G01X-738231Y2559615D01*
G01X-738302Y2560233D01*
G01X-738374Y2560850D01*
G01X-738992Y2560922D01*
G01X-739611Y2560993D01*
G01X-739682Y2561611D01*
G01X-739754Y2562229D01*
G01X-740372Y2562300D01*
G01X-740991Y2562371D01*
G01X-741134Y2563607D01*
G01X-741752Y2563679D01*
G01X-742371Y2563750D01*
G01X-742443Y2564371D01*
G01X-742514Y2564992D01*
G01X-745131Y2565129D01*
G01X-745276Y2566392D01*
G01X-750275Y2566392D01*
G01X-750348Y2565760D01*
G01X-750421Y2565129D01*
G01X-753109Y2565064D01*
G01X-755796Y2564999D01*
G01X-755941Y2563750D01*
G01X-757178Y2563607D01*
G01X-757321Y2562371D01*
G01X-758568Y2562228D01*
G01X-758635Y2560232D01*
G01X-758701Y2558236D01*
G01X-759319Y2558165D01*
G01X-759938Y2558093D01*
G01X-760009Y2557475D01*
G01X-760081Y2556858D01*
G01X-760713Y2556785D01*
G01X-761346Y2556712D01*
G01X-761346Y2537934D01*
G01X-760081Y2537788D01*
G01X-759938Y2536552D01*
G01X-759319Y2536481D01*
G01X-758701Y2536410D01*
G01X-758629Y2535792D01*
G01X-758558Y2535174D01*
G01X-757939Y2535103D01*
G01X-757321Y2535031D01*
G01X-757248Y2534403D01*
G01X-757176Y2533775D01*
G01X-751038Y2533714D01*
G01X-744901Y2533653D01*
G01X-744829Y2533032D01*
G01X-744757Y2532411D01*
G01X-742141Y2532274D01*
G01X-742068Y2531643D01*
G01X-741995Y2531011D01*
G01X-740646Y2531011D01*
G01X-740646Y2529632D01*
G01X-737886Y2529632D01*
G01X-737886Y2518145D01*
G37*
G04 Image End*

G04 Text Start*
G54D10*
G01X504698Y-1546860D02*
G01X507746Y-1540510D01*
G01X514096Y-1534414D01*
G01X520192Y-1531366D01*
G01X532638Y-1531366D01*
G01X538734Y-1534414D01*
G01X545084Y-1540510D01*
G01X548132Y-1546860D01*
G01X551180Y-1556004D01*
G01X551180Y-1571498D01*
G01X548132Y-1580896D01*
G01X545084Y-1586992D01*
G01X538734Y-1593342D01*
G01X532638Y-1596390D01*
G01X520192Y-1596390D01*
G01X514096Y-1593342D01*
G01X507746Y-1586992D01*
G01X504698Y-1580896D01*
G01X431292Y-1531366D02*
G01X462280Y-1596390D01*
G01X474472Y-1531366D02*
G01X431292Y-1531366D01*
G04 Text End*

G04 PolygonModel Start*
G01X332141Y3553920D02*
G01X-332141Y3553920D01*
G01X-332141Y3553920D02*
G01X-332141Y2262680D01*
G01X-332141Y2262680D02*
G01X332141Y2262680D01*
G01X332141Y2262680D02*
G01X332141Y3553920D01*
G01X-332141Y929180D02*
G01X332141Y929180D01*
G01X332141Y929180D02*
G01X332141Y2220420D01*
G01X332141Y2220420D02*
G01X-332141Y2220420D01*
G01X-332141Y2220420D02*
G01X-332141Y929180D01*
G54D11*
G01X-159334Y612788D02*
G01X-159334Y556781D01*
G01X-159334Y556781D02*
G01X-159321Y556768D01*
G01X-159334Y814791D02*
G01X-159334Y758815D01*
G01X-604583Y758815D02*
G01X-604583Y908416D01*
G01X-604583Y463296D02*
G01X-604583Y612788D01*
G54D10*
G01X-604573Y908416D02*
G01X-252954Y908416D01*
G01X-252954Y908416D02*
G01X-159334Y814791D01*
G01X-604583Y463296D02*
G01X-253047Y463296D01*
G01X-253047Y463296D02*
G01X-159321Y556768D01*
G36*
G01X-199205Y620253D02*
G01X-199205Y534253D01*
G01X-212105Y534253D01*
G01X-212105Y620253D01*
G01X-199205Y620253D01*
G37*
G36*
G01X-180203Y586252D02*
G01X-180203Y573354D01*
G01X-231803Y573354D01*
G01X-231803Y586252D01*
G01X-180203Y586252D01*
G37*
G36*
G01X-583999Y590799D02*
G01X-532399Y590799D01*
G01X-532399Y577901D01*
G01X-583999Y577901D01*
G01X-583999Y590799D01*
G37*
G01X-302623Y-2460114D02*
G01X302623Y-2460114D01*
G54D12*
G01X0Y-2616200D02*
G01X50800Y-2717800D01*
G01X50800Y-2717800D02*
G01X-50800Y-2717800D01*
G01X-50800Y-2717800D02*
G01X0Y-2616200D01*
G01X0Y-2616200D02*
G01X50800Y-2616200D01*
G01X50800Y-2616200D02*
G01X-50800Y-2616200D01*
G01X0Y-2768600D02*
G01X0Y-2565400D01*
G54D10*
G01X-302623Y-2269381D02*
G01X-302623Y-3064619D01*
G01X302623Y-2269381D02*
G01X302623Y-3064619D01*
G01X-302623Y-3064619D02*
G01X-182321Y-3064619D01*
G01X302623Y-3064619D02*
G01X182321Y-3064619D01*
G36*
G01X-310241Y-2277001D02*
G01X-310241Y-2231281D01*
G01X-177241Y-2231281D01*
G01X-177241Y-2277001D01*
G01X-310241Y-2277001D01*
G37*
G36*
G01X310241Y-2277001D02*
G01X177241Y-2277001D01*
G01X177241Y-2231281D01*
G01X310241Y-2231281D01*
G01X310241Y-2277001D01*
G37*
G54D11*
G01X-73012Y6934D02*
G01X-129019Y6934D01*
G01X-129019Y6934D02*
G01X-129032Y6922D01*
G01X128991Y6934D02*
G01X73015Y6934D01*
G01X73015Y452184D02*
G01X222616Y452184D01*
G01X-222504Y452184D02*
G01X-73012Y452184D01*
G54D10*
G01X222616Y452173D02*
G01X222616Y100554D01*
G01X222616Y100554D02*
G01X128991Y6934D01*
G01X-222504Y452184D02*
G01X-222504Y100648D01*
G01X-222504Y100648D02*
G01X-129032Y6922D01*
G36*
G01X-65547Y46805D02*
G01X-151547Y46805D01*
G01X-151547Y59705D01*
G01X-65547Y59705D01*
G01X-65547Y46805D01*
G37*
G36*
G01X-99548Y27803D02*
G01X-112446Y27803D01*
G01X-112446Y79403D01*
G01X-99548Y79403D01*
G01X-99548Y27803D01*
G37*
G36*
G01X-95001Y431599D02*
G01X-95001Y379999D01*
G01X-107899Y379999D01*
G01X-107899Y431599D01*
G01X-95001Y431599D01*
G37*
G54D11*
G01X475666Y-847712D02*
G01X475666Y-903719D01*
G01X475666Y-903719D02*
G01X475679Y-903732D01*
G01X475666Y-645709D02*
G01X475666Y-701685D01*
G01X30417Y-701685D02*
G01X30417Y-552084D01*
G01X30417Y-997204D02*
G01X30417Y-847712D01*
G54D10*
G01X30427Y-552084D02*
G01X382046Y-552084D01*
G01X382046Y-552084D02*
G01X475666Y-645709D01*
G01X30417Y-997204D02*
G01X381953Y-997204D01*
G01X381953Y-997204D02*
G01X475679Y-903732D01*
G36*
G01X435795Y-840247D02*
G01X435795Y-926247D01*
G01X422895Y-926247D01*
G01X422895Y-840247D01*
G01X435795Y-840247D01*
G37*
G36*
G01X454797Y-874248D02*
G01X454797Y-887146D01*
G01X403197Y-887146D01*
G01X403197Y-874248D01*
G01X454797Y-874248D01*
G37*
G36*
G01X51001Y-869701D02*
G01X102601Y-869701D01*
G01X102601Y-882599D01*
G01X51001Y-882599D01*
G01X51001Y-869701D01*
G37*
G54D12*
G01X-374861Y-3635784D02*
G01X-324820Y-3635784D01*
G01X-324820Y-3635784D02*
G01X-324820Y-3751123D01*
G01X-324820Y-3751123D02*
G01X-275046Y-3751123D01*
G01X-275046Y-3751123D02*
G01X-195026Y-3751123D01*
G01X-195026Y-3751123D02*
G01X-195026Y-3790980D01*
G01X-195026Y-3790980D02*
G01X-275046Y-3790980D01*
G01X374929Y-3635756D02*
G01X324891Y-3635756D01*
G01X324891Y-3635756D02*
G01X324891Y-3751072D01*
G01X324891Y-3751072D02*
G01X275107Y-3751072D01*
G01X275107Y-3751072D02*
G01X195097Y-3751072D01*
G01X195097Y-3751072D02*
G01X195097Y-3790950D01*
G01X195097Y-3790950D02*
G01X275107Y-3790950D01*
G01X374998Y-3580856D02*
G01X324998Y-3580856D01*
G01X324998Y-3580856D02*
G01X324998Y-3266001D01*
G01X324998Y-3266001D02*
G01X-325001Y-3266001D01*
G01X-325001Y-3266001D02*
G01X-325001Y-3581001D01*
G01X-325001Y-3581001D02*
G01X-375001Y-3581001D01*
G01X374998Y-3211002D02*
G01X374998Y-3791001D01*
G01X374998Y-3791001D02*
G01X-375001Y-3791001D01*
G01X-375001Y-3791001D02*
G01X-375001Y-3211002D01*
G01X-375001Y-3211002D02*
G01X374998Y-3211002D01*
G01X38199Y-313317D02*
G01X38199Y-347083D01*
G01X368201Y-227086D02*
G01X368201Y-175199D01*
G01X368201Y-175199D02*
G01X123815Y-175199D01*
G01X368201Y-433314D02*
G01X368201Y-480200D01*
G01X368201Y-480200D02*
G01X123200Y-480200D01*
G01X304899Y689983D02*
G01X304899Y656217D01*
G01X634901Y776214D02*
G01X634901Y828101D01*
G01X634901Y828101D02*
G01X390515Y828101D01*
G01X634901Y569986D02*
G01X634901Y523100D01*
G01X634901Y523100D02*
G01X389900Y523100D01*
G01X-177899Y-613783D02*
G01X-177899Y-580017D01*
G01X-507901Y-700014D02*
G01X-507901Y-751901D01*
G01X-507901Y-751901D02*
G01X-263515Y-751901D01*
G01X-507901Y-493786D02*
G01X-507901Y-446900D01*
G01X-507901Y-446900D02*
G01X-262900Y-446900D01*
G01X230002Y-1147501D02*
G01X230000Y-2027499D01*
G01X-230002Y-1147501D02*
G01X-230000Y-2027499D01*
G01X230000Y-2027499D02*
G01X171475Y-2027499D01*
G01X-171475Y-2027499D02*
G01X-230000Y-2027499D01*
G01X230002Y-1147501D02*
G01X171475Y-1147501D01*
G01X-171475Y-1147501D02*
G01X-230002Y-1147501D01*
G01X127000Y-1841500D02*
G01X127000Y-1333500D01*
G01X127000Y-1333500D02*
G01X87798Y-1333500D01*
G01X-87798Y-1333500D02*
G01X-127000Y-1333500D01*
G01X-127000Y-1333500D02*
G01X-127000Y-1841500D01*
G01X-127000Y-1841500D02*
G01X-87798Y-1841500D01*
G01X87798Y-1841500D02*
G01X127000Y-1841500D01*
G01X127000Y-1589448D02*
G01X103096Y-1589448D01*
G01X-103096Y-1589448D02*
G01X-127000Y-1589448D01*
G01X127000Y-1654762D02*
G01X78075Y-1654762D01*
G01X-78075Y-1654762D02*
G01X-127000Y-1654762D01*
G01X127000Y-1701935D02*
G01X57338Y-1701935D01*
G01X-57338Y-1701935D02*
G01X-127000Y-1701935D01*
G01X127000Y-1759991D02*
G01X99367Y-1759991D01*
G01X-99367Y-1759991D02*
G01X-127000Y-1759991D01*
G01X127000Y-1799905D02*
G01X102362Y-1799905D01*
G01X-102362Y-1799905D02*
G01X-127000Y-1799905D01*
G54D10*
G01X-498620Y-849439D02*
G01X-357619Y-849439D01*
G01X-357619Y-1030160D02*
G01X-498620Y-1030160D01*
G01X-513860Y-1014920D02*
G01X-513860Y-864679D01*
G01X-136380Y-849439D02*
G01X-277381Y-849439D01*
G01X-277381Y-1030160D02*
G01X-136380Y-1030160D01*
G01X-121140Y-1014920D02*
G01X-121140Y-864679D01*
G01X-498620Y-1030160D02*
G02X-513860Y-1014920I0J15240D01*
G01X-513860Y-864679D02*
G02X-498620Y-849439I15240J0D01*
G01X-136380Y-1030160D02*
G03X-121140Y-1014920I0J15240D01*
G01X-121140Y-864679D02*
G03X-136380Y-849439I-15240J0D01*

G04 Circle Start*
G54D13*
G01X241884Y3479800D02*
G03X271907Y3479800I15011J0D01*
G03X241884Y3479800I-15011J0D01*
G01X462483Y3554451D02*
G03X492506Y3554451I15011J0D01*
G03X462483Y3554451I-15011J0D01*
G01X-271907Y1003300D02*
G03X-241884Y1003300I15011J0D01*
G03X-271907Y1003300I-15011J0D01*
G01X-492506Y928649D02*
G03X-462483Y928649I15011J0D01*
G03X-492506Y928649I-15011J0D01*
G04 Circle End*

M02*

