G04 Layer: BottomPasteMaskLayer*
G04 EasyEDA Pro v3.2.149.88089769, 2026-06-22 08:14:20*
G04 Gerber Generator version 0.3*
G04 Scale: 100 percent, Rotated: No, Reflected: No*
G04 Dimensions in millimeters*
G04 Leading zeros omitted, absolute positions, 4 integers and 5 decimals*
G04 Generated by one-click*
G04 Object Configs: Pad,Via,Track,Text,Image,Dimension,BoardOutline,BoardCutout,CopperFilled,SolidRegion,FPCStiffener,Line,PlaneZone,ComponentProperty,ComponentSilkscreen,TearDrop*
G04 Layer Configs: 1,2,3,4,5,6,7,8,9,10,11,13,14,56*
G04 Copper Areas: 0*
%FSLAX45Y45*%
%MOMM*%
%ADD10O,2.5X1.524*%
%ADD11O,1.524X2.5*%
%ADD12O,2.45001X0.58801*%
%ADD13R,2.59999X1.1*%
%ADD14R,3.29999X2.69999*%
%ADD15R,1.1041X2.59999*%
%ADD16R,1.1X2.59999*%
%ADD17R,1.2X1.2*%
%ADD18R,1.5X1.6*%
G75*


G04 PolygonModel Start*
G36*
G01X-147002Y-1003800D02*
G01X-152004Y-1008802D01*
G01X-267005Y-1008802D01*
G01X-272004Y-1003800D01*
G01X-271506Y-961804D01*
G01X-227505Y-961804D01*
G01X-227505Y-916805D01*
G01X-272506Y-916805D01*
G01X-272004Y-875802D01*
G01X-267005Y-870801D01*
G01X-152004Y-870801D01*
G01X-147002Y-875802D01*
G01X-147002Y-1003800D01*
G37*
G36*
G01X-487997Y-875800D02*
G01X-482996Y-870798D01*
G01X-367995Y-870798D01*
G01X-362996Y-875800D01*
G01X-363494Y-917796D01*
G01X-407495Y-917796D01*
G01X-407495Y-962795D01*
G01X-362494Y-962795D01*
G01X-362996Y-1003798D01*
G01X-367995Y-1008799D01*
G01X-482996Y-1008799D01*
G01X-487997Y-1003798D01*
G01X-487997Y-875800D01*
G37*

G04 Pad Start*
G54D10*
G01X749300Y3721100D03*
G54D11*
G01X787400Y3454400D03*
G54D10*
G01X-749300Y3721100D03*
G54D11*
G01X-787400Y3454400D03*
G54D12*
G01X477495Y3479800D03*
G01X477495Y3352800D03*
G01X477495Y3225800D03*
G01X477495Y3098800D03*
G01X477495Y2971800D03*
G01X477495Y2844800D03*
G01X477495Y2717800D03*
G01X477495Y2590800D03*
G01X477495Y2463800D03*
G01X477495Y2336800D03*
G01X-477495Y3479800D03*
G01X-477495Y3352800D03*
G01X-477495Y3225800D03*
G01X-477495Y3098800D03*
G01X-477495Y2971800D03*
G01X-477495Y2844800D03*
G01X-477495Y2717800D03*
G01X-477495Y2590800D03*
G01X-477495Y2463800D03*
G01X-477495Y2336800D03*
G01X-477495Y1003300D03*
G01X-477495Y1130300D03*
G01X-477495Y1257300D03*
G01X-477495Y1384300D03*
G01X-477495Y1511300D03*
G01X-477495Y1638300D03*
G01X-477495Y1765300D03*
G01X-477495Y1892300D03*
G01X-477495Y2019300D03*
G01X-477495Y2146300D03*
G01X477495Y1003300D03*
G01X477495Y1130300D03*
G01X477495Y1257300D03*
G01X477495Y1384300D03*
G01X477495Y1511300D03*
G01X477495Y1638300D03*
G01X477495Y1765300D03*
G01X477495Y1892300D03*
G01X477495Y2019300D03*
G01X477495Y2146300D03*
G54D13*
G01X-560997Y685800D03*
G01X-201003Y685800D03*
G54D14*
G01X0Y-3035630D03*
G01X0Y-2298370D03*
G54D16*
G01X0Y408597D03*
G01X0Y48603D03*
G54D13*
G01X74003Y-774700D03*
G01X433997Y-774700D03*
G54D17*
G01X40693Y-230200D03*
G54D18*
G01X365712Y-330200D03*
G54D17*
G01X40693Y-430200D03*
G01X307393Y773100D03*
G54D18*
G01X632412Y673100D03*
G54D17*
G01X307393Y573100D03*
G01X-180393Y-696900D03*
G54D18*
G01X-505412Y-596900D03*
G54D17*
G01X-180393Y-496900D03*
G04 Pad End*

M02*

