G04 Layer: BottomSolderMaskLayer*
G04 EasyEDA Pro v3.2.149.88089769, 2026-06-22 08:14:20*
G04 Gerber Generator version 0.3*
G04 Scale: 100 percent, Rotated: No, Reflected: No*
G04 Dimensions in millimeters*
G04 Leading zeros omitted, absolute positions, 4 integers and 5 decimals*
G04 Generated by one-click*
G04 Object Configs: Pad,Via,Track,Text,Image,Dimension,BoardOutline,BoardCutout,CopperFilled,SolidRegion,FPCStiffener,Line,PlaneZone,ComponentProperty,ComponentSilkscreen,TearDrop*
G04 Layer Configs: 1,2,3,4,5,6,7,8,9,10,11,13,14,56*
G04 Copper Areas: 0*
%FSLAX45Y45*%
%MOMM*%
%AMRoundRect*1,1,$1,$2,$3*1,1,$1,$4,$5*1,1,$1,0-$2,0-$3*1,1,$1,0-$4,0-$5*20,1,$1,$2,$3,$4,$5,0*20,1,$1,$4,$5,0-$2,0-$3,0*20,1,$1,0-$2,0-$3,0-$4,0-$5,0*20,1,$1,0-$4,0-$5,$2,$3,0*4,1,4,$2,$3,$4,$5,0-$2,0-$3,0-$4,0-$5,$2,$3,0*%
%ADD10C,3.3516*%
%ADD11O,2.6016X1.6256*%
%ADD12O,1.6256X2.6016*%
%ADD13O,2.55161X0.68961*%
%ADD14RoundRect,0.1016X-1.3X0.55X1.3X0.55*%
%ADD15RoundRect,0.1016X-1.65X-1.35X-1.65X1.35*%
%ADD16RoundRect,0.1016X-0.55X-1.3X-0.55X1.3*%
%ADD17C,1.7033*%
%ADD18C,1.70002*%
%ADD19RoundRect,0.10003X-0.8X0.8X0.8X0.8*%
%ADD20RoundRect,0.1X-0.6X0.6X0.6X0.6*%
%ADD21RoundRect,0.1X-0.75X0.8X0.75X0.8*%
%ADD22O,1.7016X1.70155*%
%ADD23O,3.10159X2.1016*%
%ADD24RoundRect,0.1016X-0.705X0.67501X0.705X0.67501*%
G75*


G04 Pad Start*
G54D10*
G01X-749300Y4000500D03*
G01X749300Y4000500D03*
G01X-495300Y0D03*
G01X495300Y0D03*
G01X0Y-4000500D03*
G54D11*
G01X749300Y3721100D03*
G54D12*
G01X787400Y3454400D03*
G54D11*
G01X-749300Y3721100D03*
G54D12*
G01X-787400Y3454400D03*
G54D13*
G01X477495Y3479800D03*
G01X477495Y3352800D03*
G01X477495Y3225800D03*
G01X477495Y3098800D03*
G01X477495Y2971800D03*
G01X477495Y2844800D03*
G01X477495Y2717800D03*
G01X477495Y2590800D03*
G01X477495Y2463800D03*
G01X477495Y2336800D03*
G01X-477495Y3479800D03*
G01X-477495Y3352800D03*
G01X-477495Y3225800D03*
G01X-477495Y3098800D03*
G01X-477495Y2971800D03*
G01X-477495Y2844800D03*
G01X-477495Y2717800D03*
G01X-477495Y2590800D03*
G01X-477495Y2463800D03*
G01X-477495Y2336800D03*
G01X-477495Y1003300D03*
G01X-477495Y1130300D03*
G01X-477495Y1257300D03*
G01X-477495Y1384300D03*
G01X-477495Y1511300D03*
G01X-477495Y1638300D03*
G01X-477495Y1765300D03*
G01X-477495Y1892300D03*
G01X-477495Y2019300D03*
G01X-477495Y2146300D03*
G01X477495Y1003300D03*
G01X477495Y1130300D03*
G01X477495Y1257300D03*
G01X477495Y1384300D03*
G01X477495Y1511300D03*
G01X477495Y1638300D03*
G01X477495Y1765300D03*
G01X477495Y1892300D03*
G01X477495Y2019300D03*
G01X477495Y2146300D03*
G54D14*
G01X-560997Y685800D03*
G01X-201003Y685800D03*
G54D15*
G01X0Y-3035630D03*
G01X0Y-2298370D03*
G54D16*
G01X0Y408597D03*
G01X0Y48603D03*
G54D14*
G01X74003Y-774700D03*
G01X433997Y-774700D03*
G54D18*
G01X-124993Y-3556000D03*
G54D19*
G01X124993Y-3556000D03*
G54D20*
G01X40693Y-230200D03*
G54D21*
G01X365712Y-330200D03*
G54D20*
G01X40693Y-430200D03*
G01X307393Y773100D03*
G54D21*
G01X632412Y673100D03*
G54D20*
G01X307393Y573100D03*
G01X-180393Y-696900D03*
G54D21*
G01X-505412Y-596900D03*
G54D20*
G01X-180393Y-496900D03*
G54D22*
G01X0Y-1787500D03*
G01X0Y-1387500D03*
G01X0Y-1587500D03*
G54D23*
G01X0Y-1172500D03*
G01X0Y-2002500D03*
G54D24*
G01X-417500Y-939800D03*
G01X-217500Y-939800D03*
G04 Pad End*

M02*

