G04 Layer: TopPasteMaskLayer*
G04 EasyEDA Pro v3.2.149.88089769, 2026-06-22 08:14:20*
G04 Gerber Generator version 0.3*
G04 Scale: 100 percent, Rotated: No, Reflected: No*
G04 Dimensions in millimeters*
G04 Leading zeros omitted, absolute positions, 4 integers and 5 decimals*
G04 Generated by one-click*
G04 Object Configs: Pad,Via,Track,Text,Image,Dimension,BoardOutline,BoardCutout,CopperFilled,SolidRegion,FPCStiffener,Line,PlaneZone,ComponentProperty,ComponentSilkscreen,TearDrop*
G04 Layer Configs: 1,2,3,4,5,6,7,8,9,10,11,13,14,56*
G04 Copper Areas: 0*
%FSLAX45Y45*%
%MOMM*%
%ADD10O,2.5X1.524*%
%ADD11O,1.524X2.5*%
%ADD12O,2.45001X0.58801*%
%ADD13R,1.07201X0.532*%
%ADD14O,0.57399X2.03799*%
%ADD15O,2.045X0.58801*%
%ADD16R,3.5035X2.35001*%
%ADD17R,3.49999X2.35001*%
%ADD18R,1.39954X1.30048*%
G75*


G04 PolygonModel Start*
G36*
G01X-278900Y-2011997D02*
G01X-406898Y-2011997D01*
G01X-411899Y-2006996D01*
G01X-411899Y-1891995D01*
G01X-406898Y-1886996D01*
G01X-365895Y-1886494D01*
G01X-365895Y-1931495D01*
G01X-320896Y-1931495D01*
G01X-320896Y-1887494D01*
G01X-278900Y-1886996D01*
G01X-273898Y-1891995D01*
G01X-273898Y-2006996D01*
G01X-278900Y-2011997D01*
G37*
G36*
G01X-406900Y-1671002D02*
G01X-278902Y-1671002D01*
G01X-273901Y-1676004D01*
G01X-273901Y-1791005D01*
G01X-278902Y-1796004D01*
G01X-319905Y-1796506D01*
G01X-319905Y-1751505D01*
G01X-364904Y-1751505D01*
G01X-364904Y-1795506D01*
G01X-406900Y-1796004D01*
G01X-411902Y-1791005D01*
G01X-411902Y-1676004D01*
G01X-406900Y-1671002D01*
G37*
G36*
G01X278900Y-1671002D02*
G01X406898Y-1671002D01*
G01X411899Y-1676004D01*
G01X411899Y-1791005D01*
G01X406898Y-1796004D01*
G01X365895Y-1796506D01*
G01X365895Y-1751505D01*
G01X320896Y-1751505D01*
G01X320896Y-1795506D01*
G01X278900Y-1796004D01*
G01X273898Y-1791005D01*
G01X273898Y-1676004D01*
G01X278900Y-1671002D01*
G37*
G36*
G01X406900Y-2011997D02*
G01X278902Y-2011997D01*
G01X273901Y-2006996D01*
G01X273901Y-1891995D01*
G01X278902Y-1886996D01*
G01X319905Y-1886494D01*
G01X319905Y-1931495D01*
G01X364904Y-1931495D01*
G01X364904Y-1887494D01*
G01X406900Y-1886996D01*
G01X411902Y-1891995D01*
G01X411902Y-2006996D01*
G01X406900Y-2011997D01*
G37*
G36*
G01X-534500Y516903D02*
G01X-662498Y516903D01*
G01X-667499Y521904D01*
G01X-667499Y636905D01*
G01X-662498Y641904D01*
G01X-621495Y642407D01*
G01X-621495Y597405D01*
G01X-576496Y597405D01*
G01X-576496Y641406D01*
G01X-534500Y641904D01*
G01X-529499Y636905D01*
G01X-529499Y521904D01*
G01X-534500Y516903D01*
G37*
G36*
G01X-662501Y857898D02*
G01X-534502Y857898D01*
G01X-529501Y852896D01*
G01X-529501Y737895D01*
G01X-534502Y732897D01*
G01X-575506Y732394D01*
G01X-575506Y777395D01*
G01X-620504Y777395D01*
G01X-620504Y733395D01*
G01X-662501Y732897D01*
G01X-667502Y737895D01*
G01X-667502Y852896D01*
G01X-662501Y857898D01*
G37*
G36*
G01X614998Y-291600D02*
G01X614998Y-419598D01*
G01X609996Y-424599D01*
G01X494995Y-424599D01*
G01X489996Y-419598D01*
G01X489494Y-378595D01*
G01X534495Y-378595D01*
G01X534495Y-333596D01*
G01X490494Y-333596D01*
G01X489996Y-291600D01*
G01X494995Y-286598D01*
G01X609996Y-286598D01*
G01X614998Y-291600D01*
G37*
G36*
G01X274003Y-419600D02*
G01X274003Y-291602D01*
G01X279004Y-286601D01*
G01X394005Y-286601D01*
G01X399004Y-291602D01*
G01X399506Y-332605D01*
G01X354505Y-332605D01*
G01X354505Y-377604D01*
G01X398506Y-377604D01*
G01X399004Y-419600D01*
G01X394005Y-424602D01*
G01X279004Y-424602D01*
G01X274003Y-419600D01*
G37*
G36*
G01X20498Y-2515100D02*
G01X20498Y-2387102D01*
G01X25499Y-2382101D01*
G01X140500Y-2382101D01*
G01X145499Y-2387102D01*
G01X146002Y-2428105D01*
G01X101001Y-2428105D01*
G01X101001Y-2473104D01*
G01X145001Y-2473104D01*
G01X145499Y-2515100D01*
G01X140500Y-2520102D01*
G01X25499Y-2520102D01*
G01X20498Y-2515100D01*
G37*
G36*
G01X235499Y-2515100D02*
G01X235501Y-2473104D01*
G01X279999Y-2473104D01*
G01X279999Y-2428105D01*
G01X236002Y-2428105D01*
G01X235499Y-2387102D01*
G01X240500Y-2382101D01*
G01X355498Y-2382101D01*
G01X360500Y-2387102D01*
G01X360500Y-2515100D01*
G01X355498Y-2520102D01*
G01X240500Y-2520102D01*
G01X235499Y-2515100D01*
G37*
G36*
G01X360502Y-2171200D02*
G01X360502Y-2299198D01*
G01X355501Y-2304199D01*
G01X240500Y-2304199D01*
G01X235501Y-2299198D01*
G01X234998Y-2258195D01*
G01X279999Y-2258195D01*
G01X279999Y-2213196D01*
G01X235999Y-2213196D01*
G01X235501Y-2171200D01*
G01X240500Y-2166198D01*
G01X355501Y-2166198D01*
G01X360502Y-2171200D01*
G37*
G36*
G01X145501Y-2171200D02*
G01X145499Y-2213196D01*
G01X101001Y-2213196D01*
G01X101001Y-2258195D01*
G01X144998Y-2258195D01*
G01X145501Y-2299198D01*
G01X140500Y-2304199D01*
G01X25502Y-2304199D01*
G01X20500Y-2299198D01*
G01X20500Y-2171200D01*
G01X25502Y-2166198D01*
G01X140500Y-2166198D01*
G01X145501Y-2171200D01*
G37*
G36*
G01X558300Y1135202D02*
G01X686298Y1135202D01*
G01X691299Y1130201D01*
G01X691299Y1015200D01*
G01X686298Y1010201D01*
G01X645295Y1009698D01*
G01X645295Y1054699D01*
G01X600296Y1054699D01*
G01X600296Y1010699D01*
G01X558300Y1010201D01*
G01X553298Y1015200D01*
G01X553298Y1130201D01*
G01X558300Y1135202D01*
G37*
G36*
G01X558300Y920201D02*
G01X600296Y920199D01*
G01X600296Y875701D01*
G01X645295Y875701D01*
G01X645295Y919698D01*
G01X686298Y920201D01*
G01X691299Y915200D01*
G01X691299Y800202D01*
G01X686298Y795200D01*
G01X558300Y795200D01*
G01X553298Y800202D01*
G01X553298Y915200D01*
G01X558300Y920201D01*
G37*
G36*
G01X-182702Y-419600D02*
G01X-182702Y-291602D01*
G01X-177701Y-286601D01*
G01X-62700Y-286601D01*
G01X-57701Y-291602D01*
G01X-57198Y-332605D01*
G01X-102199Y-332605D01*
G01X-102199Y-377604D01*
G01X-58199Y-377604D01*
G01X-57701Y-419600D01*
G01X-62700Y-424602D01*
G01X-177701Y-424602D01*
G01X-182702Y-419600D01*
G37*
G36*
G01X32299Y-419600D02*
G01X32301Y-377604D01*
G01X76799Y-377604D01*
G01X76799Y-332605D01*
G01X32802Y-332605D01*
G01X32299Y-291602D01*
G01X37300Y-286601D01*
G01X152298Y-286601D01*
G01X157300Y-291602D01*
G01X157300Y-419600D01*
G01X152298Y-424602D01*
G01X37300Y-424602D01*
G01X32299Y-419600D01*
G37*
G36*
G01X-329700Y-1516202D02*
G01X-457698Y-1516202D01*
G01X-462699Y-1511201D01*
G01X-462699Y-1396200D01*
G01X-457698Y-1391201D01*
G01X-416695Y-1390698D01*
G01X-416695Y-1435699D01*
G01X-371696Y-1435699D01*
G01X-371696Y-1391699D01*
G01X-329700Y-1391201D01*
G01X-324698Y-1396200D01*
G01X-324698Y-1511201D01*
G01X-329700Y-1516202D01*
G37*
G36*
G01X-329700Y-1301201D02*
G01X-371696Y-1301199D01*
G01X-371696Y-1256701D01*
G01X-416695Y-1256701D01*
G01X-416695Y-1300698D01*
G01X-457698Y-1301201D01*
G01X-462699Y-1296200D01*
G01X-462699Y-1181202D01*
G01X-457698Y-1176200D01*
G01X-329700Y-1176200D01*
G01X-324698Y-1181202D01*
G01X-324698Y-1296200D01*
G01X-329700Y-1301201D01*
G37*
G36*
G01X-274498Y-291600D02*
G01X-274498Y-419598D01*
G01X-279499Y-424599D01*
G01X-394500Y-424599D01*
G01X-399499Y-419598D01*
G01X-400002Y-378595D01*
G01X-355001Y-378595D01*
G01X-355001Y-333596D01*
G01X-399001Y-333596D01*
G01X-399499Y-291600D01*
G01X-394500Y-286598D01*
G01X-279499Y-286598D01*
G01X-274498Y-291600D01*
G37*
G36*
G01X-489499Y-291600D02*
G01X-489501Y-333596D01*
G01X-533999Y-333596D01*
G01X-533999Y-378595D01*
G01X-490002Y-378595D01*
G01X-489499Y-419598D01*
G01X-494500Y-424599D01*
G01X-609498Y-424599D01*
G01X-614500Y-419598D01*
G01X-614500Y-291600D01*
G01X-609498Y-286598D01*
G01X-494500Y-286598D01*
G01X-489499Y-291600D01*
G37*

G04 Pad Start*
G54D10*
G01X-749300Y3721100D03*
G54D11*
G01X-787400Y3454400D03*
G54D10*
G01X749300Y3721100D03*
G54D11*
G01X787400Y3454400D03*
G54D10*
G01X-660400Y1955800D03*
G01X660400Y1955800D03*
G01X-647700Y1739900D03*
G01X635000Y1739900D03*
G54D12*
G01X477495Y2336800D03*
G01X477495Y2463800D03*
G01X477495Y2590800D03*
G01X477495Y2717800D03*
G01X477495Y2844800D03*
G01X477495Y2971800D03*
G01X477495Y3098800D03*
G01X477495Y3225800D03*
G01X477495Y3352800D03*
G01X477495Y3479800D03*
G01X-477495Y2336800D03*
G01X-477495Y2463800D03*
G01X-477495Y2590800D03*
G01X-477495Y2717800D03*
G01X-477495Y2844800D03*
G01X-477495Y2971800D03*
G01X-477495Y3098800D03*
G01X-477495Y3225800D03*
G01X-477495Y3352800D03*
G01X-477495Y3479800D03*
G54D13*
G01X-75590Y-2457196D03*
G01X-75590Y-2362200D03*
G01X-75590Y-2267204D03*
G01X-305410Y-2267204D03*
G01X-305410Y-2362200D03*
G01X-305410Y-2457196D03*
G54D14*
G01X381000Y2118416D03*
G01X254000Y2118416D03*
G01X127000Y2118416D03*
G01X0Y2118416D03*
G01X-127000Y2118416D03*
G01X-254000Y2118416D03*
G01X-381000Y2118416D03*
G01X381000Y1564594D03*
G01X254000Y1564594D03*
G01X127000Y1564594D03*
G01X0Y1564594D03*
G01X-127000Y1564594D03*
G01X-254000Y1564594D03*
G01X-381000Y1564594D03*
G54D15*
G01X277241Y863600D03*
G01X277241Y990600D03*
G01X277241Y1117600D03*
G01X277241Y1244600D03*
G01X-277241Y863600D03*
G01X-277241Y990600D03*
G01X-277241Y1117600D03*
G01X-277241Y1244600D03*
G54D17*
G01X0Y-2697201D03*
G01X0Y-3297199D03*
G54D15*
G01X277241Y190500D03*
G01X277241Y317500D03*
G01X277241Y444500D03*
G01X277241Y571500D03*
G01X-277241Y190500D03*
G01X-277241Y317500D03*
G01X-277241Y444500D03*
G01X-277241Y571500D03*
G01X277241Y-939800D03*
G01X277241Y-812800D03*
G01X277241Y-685800D03*
G01X277241Y-558800D03*
G01X-277241Y-939800D03*
G01X-277241Y-812800D03*
G01X-277241Y-685800D03*
G01X-277241Y-558800D03*
G54D18*
G01X381000Y-1241171D03*
G01X381000Y-1451229D03*
G04 Pad End*

M02*

